<svg width="681" height="474" viewBox="0 0 681 474" fill="none" xmlns="http://www.w3.org/2000/svg">
<path d="M21.6359 169.037C90.1359 95.036 447.636 -37.4634 526.136 10.0366C604.636 57.5366 596.136 224.537 498.136 262.037C400.136 299.537 585.636 373.037 536.136 424.037C486.636 475.037 113.136 499.537 90.1359 435.537C67.1359 371.537 -46.864 243.037 21.6359 169.037Z" fill="#FA8BA4" fill-opacity="0.48"/>
<path d="M114.139 264.772C114.139 272.222 108.1 278.26 100.651 278.26H61.4875C54.0385 278.26 48 272.222 48 264.772V227.695C48 220.246 54.0385 214.207 61.4875 214.207H100.651C108.1 214.207 114.139 220.246 114.139 227.695V264.772" fill="white"/>
<path d="M95.8291 273.087H62.7128C55.9171 273.086 50.4092 267.578 50.4087 260.783V229.43C50.4092 222.634 55.9171 217.126 62.7128 217.126H95.8291C102.624 217.126 108.133 222.634 108.133 229.43V260.783C108.133 267.578 102.624 273.086 95.8291 273.087V273.087ZM62.7128 218.924C59.8087 218.924 57.1884 220.099 55.2843 222C53.3816 223.904 52.2076 226.526 52.2071 229.43V260.783C52.2076 263.687 53.3816 266.307 55.2843 268.211C57.1884 270.114 59.8087 271.288 62.7128 271.288H95.8291C98.7327 271.288 101.353 270.114 103.258 268.211C105.16 266.307 106.334 263.687 106.335 260.783V229.43C106.334 226.526 105.16 223.904 103.258 222C101.353 220.099 98.7327 218.924 95.8291 218.924H62.7128" fill="#D6CDC7"/>
<path d="M100.651 278.26H61.4875C61.4744 278.26 61.462 278.26 61.4484 278.26C61.4459 278.26 61.4438 278.26 61.4406 278.26C61.4287 278.26 61.4162 278.26 61.4036 278.26C61.4011 278.26 61.3979 278.26 61.3948 278.26C61.3839 278.26 61.3714 278.26 61.3604 278.26C61.3568 278.26 61.3536 278.26 61.3506 278.26C61.3406 278.26 61.3312 278.26 61.3214 278.259C61.3172 278.259 61.3126 278.259 61.3078 278.259C61.2974 278.259 61.2875 278.259 61.2771 278.259C61.2714 278.259 61.2651 278.259 61.2594 278.259C61.2536 278.259 61.2479 278.259 61.2422 278.259C61.2307 278.258 61.2182 278.258 61.2068 278.258C61.2047 278.258 61.2026 278.258 61.2006 278.258C56.8891 278.167 53.0859 276.044 50.6802 272.819C52.8568 274.324 55.4938 275.211 58.3402 275.211H97.5042C104.953 275.211 110.992 269.172 110.992 261.723V224.644C110.992 221.626 109.987 218.847 108.311 216.599C111.712 218.952 113.983 222.823 114.131 227.235C114.131 227.238 114.131 227.239 114.131 227.242C114.132 227.255 114.132 227.268 114.132 227.282C114.133 227.286 114.133 227.29 114.133 227.294C114.133 227.3 114.133 227.307 114.133 227.315C114.134 227.32 114.134 227.324 114.134 227.33C114.134 227.34 114.134 227.35 114.134 227.36C114.135 227.366 114.135 227.374 114.135 227.379C114.135 227.386 114.135 227.391 114.135 227.396C114.135 227.407 114.136 227.418 114.136 227.428C114.136 227.432 114.136 227.438 114.136 227.442C114.136 227.451 114.136 227.46 114.137 227.47C114.137 227.472 114.137 227.476 114.137 227.479C114.138 227.491 114.138 227.503 114.138 227.515C114.138 227.518 114.138 227.522 114.138 227.526C114.138 227.538 114.138 227.55 114.138 227.562C114.138 227.564 114.138 227.566 114.138 227.568C114.138 227.58 114.139 227.591 114.139 227.603C114.139 227.604 114.139 227.608 114.139 227.61C114.139 227.622 114.139 227.635 114.139 227.647C114.139 227.65 114.139 227.654 114.139 227.656C114.139 227.668 114.139 227.682 114.139 227.695V264.772C114.139 270.191 110.944 274.863 106.335 277.008C104.608 277.811 102.682 278.26 100.651 278.26" fill="#D6CDC7"/>
<path d="M79.2707 264.974C79.2582 264.974 79.2458 264.974 79.2333 264.974C79.2458 264.974 79.2582 264.974 79.2707 264.974ZM79.2223 264.974C79.2134 264.974 79.203 264.974 79.1942 264.974C79.2035 264.974 79.2129 264.974 79.2223 264.974ZM79.1833 264.974C79.1582 264.972 79.1327 264.972 79.1071 264.972C79.1327 264.972 79.1582 264.972 79.1833 264.974ZM79.0989 264.972C79.0879 264.972 79.077 264.972 79.0655 264.972C79.0765 264.972 79.0879 264.972 79.0989 264.972ZM79.0603 264.972C68.4806 264.859 59.9385 256.247 59.9385 245.642C59.9385 234.964 68.5942 226.308 79.2707 226.308C89.8921 226.308 98.5129 234.874 98.6025 245.475C98.5551 239.92 96.1519 234.942 92.3609 231.444C94.0322 234.304 95.0062 237.622 95.0062 241.172C95.0062 251.85 86.351 260.506 75.6738 260.506C70.6177 260.506 66.0295 258.548 62.5843 255.37C65.9046 261.051 72.0234 264.898 79.0603 264.972V264.972ZM89.8114 240.2C87.5999 240.2 85.8071 241.994 85.8071 244.204C85.8071 246.416 87.5999 248.208 89.8114 248.208C92.0229 248.208 93.8155 246.416 93.8155 244.204C93.8155 241.994 92.0229 240.2 89.8114 240.2ZM69.1729 240.2C66.9614 240.2 65.1686 241.994 65.1686 244.204C65.1686 246.416 66.9614 248.208 69.1729 248.208C71.3838 248.208 73.1765 246.416 73.1765 244.204C73.1765 241.994 71.3838 240.2 69.1729 240.2ZM98.603 245.642C98.603 245.63 98.603 245.62 98.603 245.608C98.603 245.62 98.603 245.63 98.603 245.642ZM98.603 245.603C98.603 245.594 98.603 245.586 98.603 245.576C98.603 245.586 98.603 245.594 98.603 245.603ZM98.603 245.567C98.603 245.559 98.603 245.551 98.6025 245.543C98.603 245.551 98.603 245.56 98.603 245.567ZM98.6025 245.538C98.6025 245.53 98.6025 245.52 98.6025 245.511C98.6025 245.52 98.6025 245.53 98.6025 245.538ZM98.6025 245.506C98.6025 245.496 98.6025 245.487 98.6025 245.478C98.6025 245.487 98.6025 245.496 98.6025 245.506Z" fill="#D6CDC7"/>
<path d="M79.2332 264.974C79.2295 264.974 79.2259 264.974 79.2223 264.974C79.2264 264.974 79.2291 264.974 79.2332 264.974ZM79.1942 264.974C79.1904 264.974 79.1868 264.974 79.1832 264.974C79.1874 264.974 79.19 264.974 79.1942 264.974ZM79.1071 264.972C79.1046 264.972 79.1019 264.972 79.0988 264.972C79.1014 264.972 79.1051 264.972 79.1071 264.972ZM79.0655 264.972C79.0639 264.972 79.0624 264.972 79.0603 264.972C79.0624 264.972 79.0639 264.972 79.0655 264.972ZM98.603 245.608C98.603 245.607 98.603 245.604 98.603 245.603C98.603 245.604 98.603 245.607 98.603 245.608ZM98.603 245.576C98.603 245.574 98.603 245.571 98.603 245.567C98.603 245.571 98.603 245.574 98.603 245.576ZM98.6024 245.543C98.6024 245.542 98.6024 245.54 98.6024 245.538C98.6024 245.54 98.6024 245.542 98.6024 245.543ZM98.6024 245.511C98.6024 245.51 98.6024 245.507 98.6024 245.506C98.6024 245.507 98.6024 245.51 98.6024 245.511ZM98.6024 245.478V245.475C98.6024 245.475 98.6024 245.476 98.6024 245.478Z" fill="#D6CDC7"/>
<path d="M79.2709 264.974C79.2583 264.974 79.2459 264.974 79.2334 264.974C79.2293 264.974 79.2266 264.974 79.2225 264.974C79.213 264.974 79.2037 264.974 79.1943 264.974C79.1902 264.974 79.1875 264.974 79.1834 264.974C79.1583 264.972 79.1329 264.972 79.1073 264.972C79.1053 264.972 79.1015 264.972 79.099 264.972C79.0881 264.972 79.0766 264.972 79.0657 264.972C79.0641 264.972 79.0626 264.972 79.0605 264.972C72.0235 264.898 65.9047 261.051 62.5845 255.37C66.0297 258.548 70.6178 260.506 75.6739 260.506C86.3511 260.506 95.0063 251.85 95.0063 241.172C95.0063 237.622 94.0323 234.304 92.361 231.444C96.1521 234.942 98.5553 239.92 98.6026 245.475V245.478C98.6026 245.487 98.6026 245.496 98.6026 245.506C98.6026 245.507 98.6026 245.51 98.6026 245.511C98.6026 245.52 98.6026 245.53 98.6026 245.538C98.6026 245.54 98.6026 245.542 98.6026 245.543C98.6031 245.551 98.6031 245.559 98.6031 245.567C98.6031 245.571 98.6031 245.574 98.6031 245.576C98.6031 245.586 98.6031 245.594 98.6031 245.603C98.6031 245.604 98.6031 245.607 98.6031 245.608C98.6031 245.62 98.6031 245.63 98.6031 245.642C98.6031 256.318 89.9479 264.974 79.2709 264.974" fill="#B8AFA7"/>
<path d="M69.173 248.208C66.9615 248.208 65.1687 246.417 65.1687 244.205C65.1687 241.994 66.9615 240.201 69.173 240.201C71.3839 240.201 73.1766 241.994 73.1766 244.205C73.1766 246.417 71.3839 248.208 69.173 248.208Z" fill="#76605B"/>
<path d="M89.8114 248.208C87.5999 248.208 85.8071 246.417 85.8071 244.205C85.8071 241.994 87.5999 240.201 89.8114 240.201C92.0229 240.201 93.8155 241.994 93.8155 244.205C93.8155 246.417 92.0229 248.208 89.8114 248.208Z" fill="#76605B"/>
<path d="M172.943 403.974C172.943 403.974 134.138 406.34 136.908 420.392L203.745 417.775L172.943 403.974Z" fill="white"/>
<path d="M299.123 403.974C299.123 403.974 337.927 406.34 335.158 420.392L268.322 417.775L299.123 403.974" fill="white"/>
<path d="M136.908 420.392C136.812 419.904 136.766 419.43 136.767 418.972C136.775 412.348 146.471 408.563 155.822 406.453C166.683 413.473 181.602 416.937 195.734 416.937C197.073 416.937 198.405 416.906 199.726 416.844C200.873 417.357 202.202 417.691 203.745 417.775L136.908 420.392Z" fill="#E8E2E0"/>
<path d="M335.158 420.392L278.728 418.182C282.753 415.037 285.793 411.458 285.793 411.458C288.812 410.692 290.748 409.096 291.968 407.181L293.045 406.698C294.82 406.675 296.372 406.666 297.652 406.666C298.081 406.666 298.477 406.668 298.845 406.669C298.862 406.669 298.882 406.67 298.9 406.67C301.022 406.67 303.469 405.958 306.016 404.673C316.509 406.033 335.289 409.753 335.3 418.972C335.301 419.43 335.254 419.904 335.158 420.392" fill="#E8E2E0"/>
<path d="M302.449 400.808C302.449 400.808 353.781 409.056 375.649 388.625C405.327 360.896 392.265 318.448 360.67 319.228C329.074 320.006 332.625 345.288 339.423 348.597C346.222 351.906 358.582 357.893 365.383 344.069C365.383 344.069 383.049 375.964 349.155 384.321C314.437 392.882 287.967 381.486 302.449 400.808" fill="white"/>
<path d="M325.977 402.453C320.056 402.453 314.738 402.127 310.664 401.764C311.89 400.851 313.108 399.825 314.296 398.704C332.117 398.394 356.409 395.14 368.64 383.713C392.785 361.154 392.306 326.454 364.474 319.354C383.565 321.06 394.764 339.268 391.846 359.097C391.845 359.101 391.845 359.1 391.845 359.104C391.844 359.114 391.842 359.126 391.84 359.137C391.838 359.145 391.838 359.15 391.837 359.157C391.836 359.162 391.834 359.172 391.834 359.177C391.832 359.189 391.83 359.2 391.829 359.21C391.829 359.214 391.828 359.216 391.828 359.22C391.826 359.233 391.824 359.248 391.821 359.261V359.262C390.348 369.016 385.46 379.149 376.416 387.896C376.414 387.897 376.414 387.897 376.413 387.898C376.4 387.91 376.385 387.925 376.373 387.936C376.372 387.939 376.373 387.937 376.37 387.939C376.357 387.952 376.346 387.961 376.333 387.976C376.332 387.977 376.329 387.979 376.328 387.981C376.314 387.993 376.302 388.005 376.29 388.017L376.286 388.021C376.273 388.033 376.262 388.044 376.249 388.056C376.248 388.057 376.244 388.061 376.242 388.062C376.232 388.073 376.218 388.085 376.208 388.096C376.206 388.097 376.202 388.101 376.2 388.103C376.19 388.113 376.178 388.124 376.168 388.134C376.164 388.137 376.161 388.141 376.157 388.144C376.146 388.154 376.134 388.167 376.124 388.176C376.12 388.18 376.12 388.18 376.116 388.184C376.104 388.196 376.096 388.203 376.082 388.215C376.08 388.218 376.077 388.221 376.073 388.224C376.061 388.236 376.052 388.244 376.04 388.256C376.037 388.258 376.033 388.262 376.032 388.264C376.021 388.274 376.009 388.285 375.998 388.296C375.996 388.297 375.99 388.303 375.989 388.304C375.976 388.316 375.965 388.327 375.953 388.339C375.952 388.34 375.949 388.342 375.948 388.344C375.937 388.354 375.924 388.365 375.913 388.376C375.91 388.379 375.908 388.381 375.904 388.385C375.893 388.394 375.88 388.406 375.869 388.417C375.866 388.42 375.865 388.421 375.862 388.424C375.852 388.434 375.838 388.446 375.828 388.456C375.825 388.46 375.822 388.461 375.82 388.465C375.806 388.477 375.792 388.491 375.78 388.503L375.777 388.504C375.765 388.516 375.752 388.528 375.738 388.54C375.737 388.542 375.736 388.542 375.734 388.544C375.72 388.558 375.706 388.57 375.693 388.584H375.692C375.677 388.598 375.664 388.61 375.649 388.625C374.45 389.744 373.165 390.777 371.802 391.73C359.413 400.403 340.801 402.453 325.977 402.453" fill="#D6CDC7"/>
<path d="M155.951 323.884C155.951 323.884 133.3 370.437 138.573 386.144L141.053 378.879C141.053 378.879 138.6 395.124 155.497 406.239C172.393 417.357 199.373 419.732 217.794 413.725C236.215 407.717 286.299 406.597 298.845 406.669C311.39 406.742 335.335 381.837 324.274 360.189L330.989 370.869C330.989 370.869 333.142 358.9 313.509 342.774C292.323 325.374 273.254 229.038 277.455 248.922L174.439 257.898L168.35 281.96L155.951 323.884" fill="white"/>
<path d="M195.734 416.937C181.461 416.937 166.383 413.403 155.497 406.24C142.395 397.621 140.928 385.918 140.929 381.097C140.929 379.845 141.029 379.057 141.049 378.906C141.052 378.889 141.053 378.88 141.053 378.88L138.573 386.144C138.569 386.133 138.566 386.124 138.562 386.113C138.562 386.112 138.56 386.108 138.56 386.105C138.557 386.096 138.554 386.086 138.55 386.077C138.55 386.076 138.55 386.076 138.55 386.074C138.546 386.065 138.543 386.055 138.54 386.045C138.539 386.041 138.538 386.04 138.537 386.037C138.534 386.027 138.531 386.017 138.528 386.006C138.527 386.005 138.528 386.008 138.528 386.006C138.524 385.996 138.52 385.985 138.517 385.974C138.517 385.972 138.516 385.97 138.516 385.968C138.508 385.946 138.501 385.925 138.495 385.904C138.495 385.903 138.494 385.901 138.494 385.901C137.593 383.006 137.598 379.116 138.204 374.692C139.405 375.082 140.613 375.448 141.825 375.798C149.174 381.522 158.034 384.969 167.41 385.886C171.542 395.404 176.825 403.081 183.315 407.379L177.557 392.764C178.107 394.153 184.479 409.808 193.215 412.362L192.727 405.336C193.143 408.662 194.602 414.549 199.726 416.844C198.405 416.906 197.073 416.937 195.734 416.937" fill="#E8E2E0"/>
<path d="M241.169 409.525C240.638 406.474 239.066 404.097 232.641 403.948C232.641 403.948 217.534 398.442 206.529 379.06C206.622 379.027 206.715 378.994 206.809 378.961C222.555 373.466 238.23 364.756 251.351 354.521C259.737 347.981 266.798 340.028 273.762 332.04C274.897 330.74 276.003 329.416 277.082 328.069C278.043 330.997 280.439 341.354 276.634 364.556C272.017 392.716 254.431 403.458 254.431 403.458C249.319 404.585 247.713 406.544 247.386 408.908C245.281 409.098 243.202 409.304 241.169 409.525" fill="#E8E2E0"/>
<path d="M292.25 406.709C294.045 403.53 294.039 399.627 293.791 397.18L294.883 404.146C302.861 399.976 305.597 383.44 305.825 381.975L303.457 397.376C313.627 387.097 316.243 365.913 314.794 343.851C330.001 356.831 331.11 366.937 331.057 369.948C331.046 370.551 330.989 370.869 330.989 370.869L324.274 360.189C326.259 364.073 327.117 368.063 327.115 371.993C327.111 382.264 321.245 392.137 314.295 398.704C313.107 399.825 311.89 400.851 310.663 401.764C309.11 402.923 307.545 403.901 306.015 404.673C303.469 405.958 301.022 406.67 298.899 406.67C298.882 406.67 298.862 406.669 298.845 406.669C298.477 406.668 298.081 406.666 297.651 406.666C296.371 406.666 294.819 406.676 293.045 406.699C292.785 406.703 292.519 406.705 292.25 406.709" fill="#E8E2E0"/>
<path d="M308.001 303.301C299.484 272.014 279.262 251.494 279.262 251.494L263.797 261.805L276.737 327.157C276.737 327.157 281.253 336.396 276.634 364.556C272.017 392.716 254.431 403.458 254.431 403.458C244.535 405.638 247.777 410.944 248.006 416.254C248.237 421.563 257.063 420.246 257.063 420.246L258.64 414.934L259.178 418.377C261.052 419.297 262.689 419.508 264.054 419.372L263.267 420.392C270.702 429.217 285.793 411.458 285.793 411.458C293.944 409.389 294.204 401.258 293.792 397.18L294.883 404.146C302.861 399.975 305.597 383.44 305.825 381.974L303.457 397.375C320.092 380.567 316.518 334.588 308.001 303.301" fill="white"/>
<path d="M241.786 415.236C240.825 409.996 242.809 404.185 232.641 403.948C232.641 403.948 213.034 396.801 202.222 370.134C191.41 343.468 192.005 333.734 192.005 333.734L173.415 265.061C173.415 265.061 157.425 284.137 156.085 316.377C154.745 348.617 163.283 394.116 183.315 407.379L177.557 392.764C178.107 394.153 184.479 409.808 193.215 412.362L192.727 405.336C193.235 409.406 195.307 417.312 203.745 417.776C203.745 417.776 203.575 423.933 218.17 419.136L217.794 413.725L221.822 420.112C221.822 420.112 226.23 423.4 231.33 419.451L231.089 415.98L233.818 420.876C233.818 420.876 242.747 420.476 241.786 415.236" fill="white"/>
<path d="M286.501 103.76C286.501 103.76 303.802 139.802 280.487 171.605C257.398 203.101 212.005 148.568 243.335 115.209C252.943 104.978 276.531 73.6249 286.501 103.76" fill="white"/>
<path d="M281.423 123.545C281.423 123.545 292.667 147.439 277.662 168.451C262.801 189.261 233.371 153.074 253.554 131.046C259.743 124.291 274.926 103.577 281.423 123.545Z" fill="#F89D9A"/>
<path d="M278.662 173.439C277.978 172.19 277.287 170.985 276.591 169.825C276.955 169.398 277.313 168.941 277.662 168.451C292.667 147.439 281.423 123.545 281.423 123.545C279.409 117.357 276.562 115.075 273.406 115.075C266.379 115.075 257.825 126.385 253.554 131.046C250.281 134.618 248.311 138.565 247.374 142.578C247.062 142.453 246.754 142.334 246.447 142.219C247.057 135.751 249.514 129.411 254.489 124.167C259.601 118.779 269.855 105.706 278.225 105.706C281.969 105.706 285.335 108.321 287.697 115.411C287.697 115.411 296.922 140.313 283.014 167.082C281.657 169.693 280.195 171.795 278.662 173.439" fill="#D6CDC7"/>
<path d="M276.591 169.825C266.905 153.689 256.146 146.086 247.374 142.578C248.311 138.565 250.281 134.618 253.554 131.046C257.825 126.385 266.379 115.075 273.406 115.075C276.562 115.075 279.409 117.357 281.423 123.545C281.423 123.545 292.667 147.439 277.662 168.451C277.313 168.941 276.955 169.398 276.591 169.825" fill="#D98883"/>
<path d="M112.758 152.941C112.758 152.941 114.938 192.864 150.679 209.521C186.077 226.018 199.623 156.369 156.106 142.205C142.76 137.861 106.995 121.729 112.758 152.941" fill="white"/>
<path d="M126.732 167.842C126.732 167.842 128.374 194.199 151.64 205.397C174.681 216.486 183.064 170.602 154.772 161.006C146.094 158.062 122.817 147.213 126.732 167.842" fill="#F89D9A"/>
<path d="M154.262 210.715C151.822 209.845 149.163 208.549 146.288 206.771C120.63 190.907 117.317 163.731 117.317 163.731C115.294 152.649 120.167 149.379 126.985 149.379C134.801 149.379 145.172 153.677 150.641 155.426C155.105 156.854 158.995 159.249 162.293 162.271C161.927 162.721 161.741 162.973 161.741 162.973C161.518 163.349 161.299 163.726 161.086 164.102C159.226 162.854 157.126 161.805 154.771 161.006C150.087 159.417 141.146 155.523 134.526 155.523C128.884 155.523 124.93 158.35 126.732 167.842C126.732 167.842 128.373 194.199 151.639 205.397C152.314 205.722 152.977 205.998 153.626 206.227C153.807 207.751 154.022 209.25 154.262 210.715Z" fill="#D6CDC7"/>
<path d="M153.626 206.228C152.977 205.998 152.314 205.722 151.639 205.397C128.373 194.2 126.732 167.842 126.732 167.842C124.93 158.35 128.884 155.524 134.527 155.524C141.146 155.524 150.087 159.417 154.771 161.006C157.126 161.805 159.226 162.854 161.086 164.102C153.013 178.385 152.095 193.3 153.626 206.228" fill="#D98883"/>
<path d="M161.741 162.972C161.741 162.972 169.954 151.928 183.896 145.221L174.444 140.632C174.444 140.632 182.656 138.917 201.178 142.211C201.178 142.211 193.636 139.067 185.138 137.532C185.138 137.532 204.02 132.059 220.788 140.524L207.864 130.944C207.864 130.944 224.381 134.819 229.632 139.96C229.632 139.96 263.996 133.257 285.576 188.376C294.632 211.505 311.016 216.303 311.016 216.303L303.948 226.348L313.306 223.635C313.306 223.635 303.184 238.515 296.864 247.909C280.437 272.328 212.513 309.175 156.186 266.532L165.83 260.071L153.418 257.672C153.418 257.672 163.254 249.491 161.537 239.327C159.821 229.163 143.117 194.357 161.741 162.972" fill="white"/>
<path d="M171.513 214.651C172.841 219.873 178.147 223.029 183.369 221.702C188.59 220.374 191.746 215.066 190.418 209.846C189.091 204.625 183.783 201.469 178.562 202.795C173.342 204.123 170.186 209.431 171.513 214.651Z" fill="#4E302C"/>
<path d="M173.359 212.054C173.791 213.751 175.517 214.777 177.214 214.346C178.911 213.914 179.938 212.189 179.506 210.491C179.074 208.794 177.349 207.767 175.651 208.199C173.954 208.63 172.929 210.357 173.359 212.054Z" fill="white"/>
<path d="M253.624 193.778C254.95 198.998 260.258 202.156 265.48 200.828C270.7 199.501 273.857 194.193 272.529 188.972C271.202 183.752 265.894 180.594 260.673 181.922C255.453 183.249 252.296 188.557 253.624 193.778Z" fill="#4E302C"/>
<path d="M260.974 180.206C256.065 180.126 251.062 179.117 249.529 177.673C246.1 174.445 251.185 170.915 251.185 170.915C253.004 170.543 255.076 170.219 257.194 170.037C258.538 173.139 259.808 176.522 260.974 180.206Z" fill="#D6BDAF"/>
<path d="M261.598 180.211C261.39 180.211 261.182 180.209 260.974 180.206C259.807 176.522 258.538 173.139 257.194 170.037C258.339 169.938 259.498 169.881 260.637 169.881C266.026 169.881 270.981 171.154 272.037 175.306C272.939 178.857 267.442 180.211 261.598 180.211Z" fill="#BCA394"/>
<path d="M167.093 203.171C166.777 203.171 166.493 203.143 166.249 203.086C161.665 202.006 164.302 196.407 164.302 196.407C168.57 192.623 175.121 188.03 180.153 188.03C181.838 188.03 183.353 188.545 184.554 189.778C189.091 194.43 172.737 203.171 167.093 203.171" fill="#D6BDAF"/>
<path d="M256.523 189.947C256.955 191.645 258.681 192.67 260.378 192.238C262.075 191.807 263.101 190.082 262.67 188.385C262.238 186.687 260.513 185.661 258.815 186.093C257.118 186.523 256.091 188.25 256.523 189.947" fill="white"/>
<path d="M237.681 270.396C234.2 270.396 229.634 269.332 223.644 266.523C223.644 266.523 225.417 266.799 228.153 266.799C233.402 266.799 242.2 265.787 248.846 259.886C248.846 259.886 248.616 270.396 237.681 270.396Z" fill="#D6CDC7"/>
<path d="M185.378 347.811C185.589 349.283 184.565 350.647 183.091 350.857C181.619 351.068 180.254 350.045 180.045 348.572L176.435 323.309C176.225 321.836 177.249 320.472 178.722 320.261C180.194 320.051 181.559 321.075 181.769 322.547L185.378 347.811Z" fill="#8D9495"/>
<path d="M203.374 345.753C203.585 347.225 202.561 348.591 201.089 348.8C199.615 349.011 198.251 347.988 198.041 346.515L194.433 321.252C194.222 319.779 195.246 318.415 196.718 318.204C198.191 317.993 199.555 319.017 199.766 320.491L203.374 345.753Z" fill="#8D9495"/>
<path d="M175.29 336.391C175.29 336.391 164.99 306.167 185.677 300.529C206.363 294.892 205.573 333.239 205.573 333.239L175.29 336.391Z" fill="#4E302C"/>
<path d="M343.751 301.471C336.906 296.291 332.554 290.382 330.703 285.691C329.981 283.859 327.941 277.719 332.026 275.597C334.617 274.251 337.245 273.587 339.67 273.587C342.701 273.587 345.415 274.626 347.35 276.667C351.709 281.269 351.129 289.409 345.795 298.445C345.163 299.517 344.481 300.526 343.751 301.471ZM680.387 341.087C669.222 334.538 656.215 332.205 641.785 334.31C593.97 341.283 582.903 387.346 579.265 402.482L579.149 402.967C572.223 431.794 552.814 451.012 525.901 455.689C501.455 459.936 475.03 450.946 464.435 434.773C457.454 424.115 458.107 411.893 466.327 399.426C484.703 371.561 487.682 342.685 474.102 324.07C461.662 307.015 438.073 301.838 409.375 309.862C381.179 317.743 360.441 312.369 347.198 303.874C347.989 302.841 348.73 301.741 349.415 300.579C355.754 289.838 356.123 279.818 350.401 273.777C345.597 268.705 337.625 267.954 330.09 271.867C325.299 274.355 324.035 280.243 326.794 287.235C328.819 292.367 333.555 298.858 340.981 304.546C334.521 310.674 325.475 312.883 315.197 310.627C299.898 307.274 283.349 293.45 281.318 273.518C279.999 260.578 273.305 250.343 261.958 243.917C245.849 234.794 221.542 234.547 202.851 243.318C174.141 256.793 185.671 325.945 186.177 328.881L190.318 328.17C190.199 327.481 178.794 259.25 204.637 247.123C222.167 238.894 244.887 239.081 259.887 247.573C269.998 253.298 275.962 262.418 277.137 273.946C279.37 295.863 297.522 311.055 314.297 314.733C326.175 317.341 336.953 314.469 344.45 307.009C358.581 316.295 380.641 322.263 410.509 313.909C437.417 306.386 459.359 310.991 470.707 326.547C483.227 343.709 480.205 370.747 462.819 397.114C453.737 410.889 453.062 425.081 460.919 437.075C470.609 451.866 491.358 460.974 513.275 460.973C517.701 460.973 522.181 460.601 526.619 459.83C555.263 454.85 575.899 434.484 583.235 403.951L583.353 403.463C587.193 387.482 597.391 345.03 642.391 338.469C656.914 336.351 669.615 338.875 680.387 345.949V341.087" fill="#4E302C"/>
<path d="M214.977 203.297C214.977 203.297 189.114 218.097 195.17 244.515C199.957 265.391 225.617 262.067 229.51 251.768C233.405 241.469 231.673 238.553 231.673 238.553C231.673 238.553 240.778 259.613 255.298 252.683C274.123 243.697 271.525 213.635 243.113 203.085C226.482 196.911 214.977 203.297 214.977 203.297" fill="#F89D9A"/>
<path d="M221.383 233.103C221.383 233.103 210.347 229.687 209.478 219.34C208.609 208.992 224.787 199.3 236.198 205.207C247.607 211.115 242.126 227.284 238.302 231.095C235.415 233.971 226.505 235.994 221.383 233.103Z" fill="#88442C"/>
<path d="M227.588 234.507C231.904 234.507 236.405 232.986 238.302 231.095C238.574 230.823 238.856 230.489 239.138 230.099C238.856 230.489 238.574 230.823 238.302 231.095C236.405 232.986 231.905 234.507 227.588 234.507ZM221.434 233.133C221.428 233.129 221.422 233.126 221.416 233.122C221.422 233.126 221.428 233.129 221.434 233.133Z" fill="#B5746D"/>
<path d="M227.587 234.507C225.359 234.507 223.181 234.102 221.434 233.133C221.427 233.129 221.422 233.126 221.415 233.122C221.405 233.117 221.394 233.11 221.383 233.103C221.35 233.094 212.729 230.397 210.154 222.602C213.014 225.359 216.41 226.425 216.41 226.425C217.897 227.263 219.759 227.614 221.665 227.613C225.321 227.613 229.134 226.325 230.741 224.723C233.842 221.633 238.221 208.953 230.109 203.486C232.203 203.666 234.269 204.21 236.198 205.207C246.794 210.694 242.822 225.031 239.138 230.099C238.855 230.489 238.574 230.823 238.302 231.095C236.405 232.986 231.903 234.507 227.587 234.507" fill="#713C2B"/>
</svg>
