<svg width="279" height="224" viewBox="0 0 279 224" fill="none" xmlns="http://www.w3.org/2000/svg">
<path d="M5.56808 179.411C1.93741 170.251 -1.18038 160.11 0.439253 150.153C1.86993 141.33 6.78281 133.977 10.1165 125.92C16.7165 109.973 17.0675 91.4228 21.8724 74.6033C31.7926 39.8459 62.4846 15.1987 93.2711 17.236C102.382 17.8334 111.451 20.5295 120.535 19.5491C130.185 18.5227 139.134 13.4524 148.123 9.19385C158.097 4.46048 168.53 0.615586 179.26 0.0641254C189.99 -0.487336 201.125 2.48445 209.628 10.2815C214.595 14.831 218.469 20.7899 222.815 26.1666C229.077 33.933 236.366 40.5352 244.342 45.6669C252.211 50.7219 260.876 54.475 267.381 61.7818C280.352 76.3496 281.013 100.92 276.384 121.416C269.352 152.497 251.01 180.928 225.622 192.003C208.656 199.402 190.098 198.774 172.039 198.697C134.45 198.544 96.8478 201.24 59.5423 206.755C35.2343 210.324 16.757 207.659 5.56808 179.411Z" fill="#F2D0D8" fill-opacity="0.44"/>
<path d="M272.049 206.843C272.225 197.367 214.86 188.384 143.92 186.779C72.9804 185.174 15.3298 191.554 15.1538 201.03C14.9777 210.506 72.3428 219.489 143.282 221.094C214.222 222.699 271.873 216.318 272.049 206.843Z" fill="#EFD8E3"/>
<path d="M245.882 187.193H223.26" stroke="#775EFA" stroke-width="0.4759" stroke-miterlimit="10" stroke-linecap="round" stroke-linejoin="round"/>
<path d="M254.933 194.132H232.312" stroke="#775EFA" stroke-width="0.4759" stroke-miterlimit="10" stroke-linecap="round" stroke-linejoin="round"/>
<path d="M266.682 202.461H244.049" stroke="#775EFA" stroke-width="0.4759" stroke-miterlimit="10" stroke-linecap="round" stroke-linejoin="round"/>
<path d="M278 210.572H255.366" stroke="#775EFA" stroke-width="0.4759" stroke-miterlimit="10" stroke-linecap="round" stroke-linejoin="round"/>
<path d="M271.558 206.465H248.937" stroke="#775EFA" stroke-width="0.4759" stroke-miterlimit="10" stroke-linecap="round" stroke-linejoin="round"/>
<path d="M260.255 198.071H237.622" stroke="#775EFA" stroke-width="0.4759" stroke-miterlimit="10" stroke-linecap="round" stroke-linejoin="round"/>
<path d="M250.373 190.411H227.739" stroke="#775EFA" stroke-width="0.4759" stroke-miterlimit="10" stroke-linecap="round" stroke-linejoin="round"/>
<path d="M262.937 212.747H69.0374L66.0624 210.572L55.0141 202.461L43.6508 194.132L38.5758 190.411L34.1891 187.193L31.7158 185.378L44.8291 185.365L61.3608 185.339L80.5991 185.326H80.6107L97.119 185.3L118.189 185.275L134.697 185.262H134.709L156.841 185.236H156.852L173.349 185.21L195.119 185.185L211.616 185.159H216.971L238.484 198.071L245.799 202.461L252.449 206.452L259.309 210.572L262.937 212.747Z" fill="#9C89FD"/>
<path d="M34.6333 187.193H12" stroke="#775EFA" stroke-width="0.4759" stroke-miterlimit="10" stroke-linecap="round" stroke-linejoin="round"/>
<path d="M43.6851 194.132H21.0518" stroke="#775EFA" stroke-width="0.4759" stroke-miterlimit="10" stroke-linecap="round" stroke-linejoin="round"/>
<path d="M55.4234 202.461H32.8018" stroke="#775EFA" stroke-width="0.4759" stroke-miterlimit="10" stroke-linecap="round" stroke-linejoin="round"/>
<path d="M66.7407 210.572H44.1074" stroke="#775EFA" stroke-width="0.4759" stroke-miterlimit="10" stroke-linecap="round" stroke-linejoin="round"/>
<path d="M60.3101 206.465H37.6768" stroke="#775EFA" stroke-width="0.4759" stroke-miterlimit="10" stroke-linecap="round" stroke-linejoin="round"/>
<path d="M48.9956 198.071H26.3623" stroke="#775EFA" stroke-width="0.4759" stroke-miterlimit="10" stroke-linecap="round" stroke-linejoin="round"/>
<path d="M39.1138 190.411H16.4922" stroke="#775EFA" stroke-width="0.4759" stroke-miterlimit="10" stroke-linecap="round" stroke-linejoin="round"/>
<path d="M99.746 212.747H79.726L44.8311 185.365L61.3627 185.339L99.746 212.747Z" fill="#775EFA"/>
<path d="M135.574 212.747H115.554L80.6121 185.326L97.1204 185.3L135.574 212.747Z" fill="#775EFA"/>
<path d="M173.21 212.747H153.202L118.19 185.275L134.698 185.262H134.71L173.21 212.747Z" fill="#775EFA"/>
<path d="M211.919 212.747H191.911L156.852 185.235L173.349 185.21L211.919 212.747Z" fill="#775EFA"/>
<path d="M250.268 212.747H230.248L195.12 185.185L211.617 185.159L250.268 212.747Z" fill="#775EFA"/>
<path opacity="0.32" d="M54.8636 185.841C53.3819 187.811 51.1653 188.892 49.2636 190.373C47.3619 191.84 45.6119 194.132 45.9153 196.681C46.1486 198.715 47.6186 200.285 49.1353 201.47C57.1269 207.739 67.7086 207.752 77.4969 207.212C116.51 205.087 155.465 198.29 194.455 201.006C206.145 201.817 217.823 203.491 229.513 202.86C232.022 202.731 234.6 202.461 236.817 201.174C239.033 199.886 240.818 197.324 240.632 194.569C240.457 191.943 238.543 189.767 236.35 188.712C234.157 187.656 231.707 187.527 229.315 187.412C183.15 185.133 136.915 184.721 90.7385 186.176C80.7286 186.497 70.6019 186.884 60.8019 184.592" fill="#292563"/>
<path d="M241.296 199.924C238.741 199.821 236.011 200.272 233.118 200.349C229.431 200.465 225.464 200.465 221.206 200.323C178.704 198.971 150.833 197.04 122.261 200.439C93.6663 203.825 45.1097 206.258 47.513 191.698C47.7814 190.075 48.528 188.621 49.613 187.295C37.2114 187.269 20.5981 185.788 21.8347 177.948C23.3864 168.113 41.843 163.517 49.4147 162.062C49.4147 162.062 49.4264 162.062 49.438 162.049C49.7064 161.998 49.9864 161.959 50.2314 161.907C50.173 161.766 50.103 161.624 50.0564 161.483C49.9864 161.341 49.9397 161.199 49.8814 161.045C49.193 159.333 48.6797 157.414 48.213 155.316C42.473 128.963 56.9513 116.823 56.9513 116.823C50.8497 98.4909 57.7447 69.8465 66.2963 70.3743C74.848 70.915 83.0963 99.9842 83.0963 99.9842C86.2113 99.1088 86.0363 99.4821 88.7896 99.2761C89.4663 99.2247 90.143 99.1989 90.7846 99.1603C97.283 98.9672 102.673 100.37 106.803 102.121C113.196 104.812 116.136 106.872 116.136 106.872C122.74 94.9119 145.081 80.0555 149.363 85.2179C155.535 92.6203 148.173 111.429 143.985 120.672C142.795 123.273 141.861 125.088 141.546 125.706L141.43 125.925C141.43 125.925 141.43 125.951 141.441 126.015C141.453 126.067 141.465 126.144 141.488 126.273C144.276 124.857 150.028 122.127 157.355 119.346C171.693 113.914 192.074 108.365 208.326 112.588C211.978 113.54 215.408 114.982 218.523 117.029C236.979 129.144 242.766 150.733 244.574 163.298C251.761 163.723 263.089 165.229 265.189 170.404C266.426 173.455 266.893 175.695 267.021 177.305V177.356C268.246 177.91 269.343 178.528 270.299 179.223C271.489 180.111 272.434 181.128 273.018 182.261C276.413 189.11 280.158 201.533 241.296 199.924Z" fill="white"/>
<path d="M236.022 126.055C238.531 127.548 240.281 130.277 241.319 133.2C241.891 134.809 242.287 136.547 242.159 138.272C242.031 139.997 241.342 141.735 240.071 142.765C238.169 144.323 235.357 143.937 233.409 142.456C231.449 140.976 230.201 138.62 229.209 136.238C228.287 134.011 226.269 128.707 227.926 126.428C229.641 124.098 234.027 124.87 236.022 126.055Z" fill="white"/>
<path d="M66.5072 176.688C66.5072 176.688 51.2122 175.182 47.8289 191.467C44.4456 207.753 107.399 201.689 107.399 201.689C107.399 201.689 129.6 198.136 141.384 198.895C142.282 198.96 143.6 199.011 145.269 199.063" stroke="#292563" stroke-width="0.6142" stroke-miterlimit="10" stroke-linecap="round" stroke-linejoin="round"/>
<path d="M242.183 199.719C260.686 199.719 266.881 197.814 266.881 197.814C266.881 197.814 278.617 194.634 273.717 183.73C268.817 172.826 260.324 178.078 246.604 174.976C232.884 171.873 223.738 164.561 223.738 164.561" stroke="#292563" stroke-width="0.6142" stroke-miterlimit="10" stroke-linecap="round" stroke-linejoin="round"/>
<path d="M228.66 125.721C228.66 125.721 235.007 123.004 239.219 129.106C243.43 135.209 242.625 139.83 239.487 143.783" stroke="#292563" stroke-width="0.6142" stroke-miterlimit="10" stroke-linecap="round" stroke-linejoin="round"/>
<path d="M141.383 125.939C141.383 125.939 182.706 105.083 207.334 112.473C207.334 112.473 229.279 117.352 239.499 143.769C239.499 143.769 244.049 155.008 244.562 163.093L245.309 174.654" stroke="#292563" stroke-width="0.6142" stroke-miterlimit="10" stroke-linecap="round" stroke-linejoin="round"/>
<path d="M207.637 153.605C205.771 158.188 203.041 162.759 198.782 164.561C194.116 166.543 188.796 164.625 184.491 161.793C180.186 158.961 176.382 155.214 171.809 152.987C168.927 151.584 165.824 150.837 162.907 149.473C160.014 148.134 157.202 145.997 155.942 142.817C155.242 141.04 155.067 139.071 154.986 137.127C154.741 131.475 155.277 124.819 157.494 119.232C171.809 113.812 192.156 108.276 208.384 112.486C209.376 114.43 210.017 116.644 210.507 118.807C213.051 130.329 212.024 142.778 207.637 153.605Z" fill="#292563"/>
<path d="M215.862 142.096C215.827 144.387 216.387 146.91 218.079 148.249C220.424 150.116 223.935 148.79 225.674 146.241C227.4 143.692 227.774 140.345 227.925 137.165C228.159 132.221 226.584 122.514 220.004 125.128C217.904 125.965 216.562 128.192 216.212 130.561C215.699 134.049 215.92 138.517 215.862 142.096Z" fill="#292563"/>
<path d="M237.797 153.953C237.902 153.051 237.844 152.125 237.622 151.249" stroke="#11133D" stroke-width="0.3099" stroke-miterlimit="10" stroke-linecap="round" stroke-linejoin="round"/>
<path d="M237.971 147.464C238.578 148.301 238.916 149.357 238.928 150.425" stroke="#11133D" stroke-width="0.3099" stroke-miterlimit="10" stroke-linecap="round" stroke-linejoin="round"/>
<path d="M239.5 152.369C239.604 153.605 239.627 154.867 239.558 156.102" stroke="#11133D" stroke-width="0.3099" stroke-miterlimit="10" stroke-linecap="round" stroke-linejoin="round"/>
<path d="M149.853 127.767C149.025 127.754 148.208 127.935 147.45 128.282" stroke="#11133D" stroke-width="0.3099" stroke-miterlimit="10" stroke-linecap="round" stroke-linejoin="round"/>
<path d="M143.997 128.346C144.673 127.587 145.583 127.085 146.54 126.943" stroke="#11133D" stroke-width="0.3099" stroke-miterlimit="10" stroke-linecap="round" stroke-linejoin="round"/>
<path d="M148.23 126.081C149.338 125.81 150.458 125.643 151.59 125.566" stroke="#11133D" stroke-width="0.3099" stroke-miterlimit="10" stroke-linecap="round" stroke-linejoin="round"/>
<path d="M267.968 180.022C267.968 181.078 265.612 181.94 262.695 181.94C259.778 181.94 257.422 181.078 257.422 180.022C257.422 178.967 259.778 178.104 262.695 178.104C265.612 178.104 267.968 178.967 267.968 180.022Z" fill="#292563"/>
<path d="M262.03 169.054C261.878 170.097 259.416 170.522 256.546 169.994C253.676 169.466 251.471 168.191 251.623 167.149C251.775 166.106 254.236 165.681 257.106 166.209C259.988 166.737 262.193 168.011 262.03 169.054Z" fill="#292563"/>
<path d="M144.322 120.004C148.581 110.786 156.071 92.0034 149.794 84.6138C145.431 79.4643 121.701 94.2692 116.287 106.435C116.287 106.435 113.009 104.182 106.522 101.491C103.781 109.061 98.239 124.986 97.259 132.118C95.4507 145.288 92.6157 150.554 102.497 161.303C108.926 168.307 110.536 183.086 110.536 183.086C110.536 183.086 133.881 181.708 138.967 163.698C142.059 152.755 142.036 141.439 141.546 134.23C142.012 128.733 141.872 126.402 141.779 125.604C141.767 125.488 141.756 125.398 141.732 125.347C141.721 125.282 141.721 125.257 141.721 125.257L141.837 125.038L144.322 120.004Z" fill="#292563"/>
<path d="M88.5559 99.1741C85.8026 99.3801 85.9776 99.0196 82.8626 99.8822C82.8626 99.8822 74.6376 70.8645 66.0976 70.3238C57.5576 69.7831 50.6743 98.3888 56.7643 116.695C56.7643 116.695 56.7409 116.708 56.7409 116.721L56.7293 116.695C56.7293 116.695 56.6593 116.773 56.5309 116.901C55.9826 117.404 54.536 118.845 52.9143 121.266C48.2943 127.419 40.746 139.135 43.231 151.236C46.7426 168.345 56.9159 171.615 56.9159 171.615C57.1493 171.371 57.7326 170.302 58.0476 169.594L64.8726 157.377C67.0076 155.381 69.6326 154.03 72.0243 152.369C75.5126 149.961 78.1026 146.331 79.9809 142.327C83.5742 134.719 85.3359 126.08 87.1909 117.815C88.5676 111.675 89.9792 105.379 90.5392 99.0582C89.8976 99.0969 89.2209 99.1355 88.5559 99.1741Z" fill="#292563"/>
<path d="M83.3542 99.8949C83.3542 99.8949 89.7242 98.4015 99.7576 99.7919C109.721 101.169 116.348 106.77 116.348 106.77" stroke="#292563" stroke-width="0.6142" stroke-miterlimit="10" stroke-linecap="round" stroke-linejoin="round"/>
<path d="M51.7949 167.907C51.7949 167.907 67.0316 179.301 83.3532 181.863C103.537 185.03 115.308 181.734 115.308 181.734" stroke="#292563" stroke-width="0.6142" stroke-miterlimit="10" stroke-linecap="round" stroke-linejoin="round"/>
<path d="M61.2545 78.7816C61.2545 78.7816 55.7012 86.4158 57.4395 114.674L65.2211 109.087L61.2545 78.7816Z" fill="#FCE0EC"/>
<path d="M126.681 113.67C128.945 110.284 138.395 96.5862 145.931 93.0073C146.445 92.7627 147.028 93.0201 147.215 93.5866C147.88 95.7108 148.708 101.517 143.575 112.279C138.056 123.853 138.255 123.415 138.255 123.415L126.845 115.047C126.46 114.7 126.39 114.095 126.681 113.67Z" fill="#FCE0EC"/>
<path d="M97.5604 162.771C97.7704 163.183 97.6304 163.698 97.2571 163.917C96.8838 164.148 96.4171 163.994 96.2188 163.582C96.0088 163.17 96.1488 162.655 96.5221 162.436C96.8954 162.217 97.3621 162.359 97.5604 162.771Z" fill="#FECBC8"/>
<path d="M101.094 163.891C101.304 164.303 101.164 164.818 100.791 165.037C100.418 165.268 99.951 165.114 99.7527 164.702C99.5427 164.29 99.6827 163.775 100.056 163.556C100.418 163.324 100.896 163.479 101.094 163.891Z" fill="#FECBC8"/>
<path d="M99.192 166.015C99.402 166.427 99.262 166.942 98.8887 167.161C98.5154 167.393 98.0487 167.238 97.8504 166.826C97.6404 166.414 97.7803 165.899 98.1537 165.68C98.527 165.461 98.9937 165.603 99.192 166.015Z" fill="#FECBC8"/>
<path d="M70.7634 158.548C70.4134 158.844 70.3434 159.411 70.6117 159.797C70.88 160.183 71.3934 160.26 71.7434 159.964C72.0934 159.668 72.1634 159.102 71.895 158.716C71.6267 158.329 71.1134 158.252 70.7634 158.548Z" fill="#FECBC8"/>
<path d="M66.9245 157.995C66.5745 158.291 66.5045 158.857 66.7728 159.243C67.0412 159.63 67.5545 159.707 67.9045 159.411C68.2545 159.115 68.3245 158.548 68.0562 158.162C67.7878 157.776 67.2862 157.699 66.9245 157.995Z" fill="#FECBC8"/>
<path d="M67.9509 160.93C67.6009 161.226 67.5309 161.792 67.7992 162.178C68.0675 162.565 68.5809 162.642 68.9309 162.346C69.2809 162.05 69.3509 161.483 69.0825 161.097C68.8142 160.711 68.3009 160.633 67.9509 160.93Z" fill="#FECBC8"/>
<path d="M79.2451 147.992C78.3351 148.223 77.2385 148.79 77.2851 149.794C77.3085 150.232 77.5535 150.605 77.7868 150.953C79.6651 153.656 81.8585 156.102 84.3085 158.201C84.5651 158.42 84.8451 158.651 85.1718 158.716C85.4868 158.78 85.8135 158.664 86.1285 158.561C88.9634 157.557 91.6818 156.154 94.1901 154.403C94.6918 154.055 95.2168 153.643 95.3801 153.038C95.6951 151.918 94.6918 150.901 93.7934 150.232C89.5351 146.975 84.2851 146.717 79.2451 147.992Z" fill="#11133D"/>
<path d="M84.144 165.912C85.9874 152.549 86.0807 152.163 86.0807 152.163" stroke="#11133D" stroke-width="0.6518" stroke-miterlimit="10" stroke-linecap="round" stroke-linejoin="round"/>
<path d="M92.4161 165.976C91.9261 167.766 90.2577 168.924 88.6244 168.886C86.7344 168.847 85.2877 167.495 84.1444 165.899C83.1644 166.852 81.8811 167.161 80.5978 167.354C79.6294 167.495 78.6028 167.341 77.7978 166.697C76.7478 165.848 76.3278 164.316 76.5144 162.912" stroke="#11133D" stroke-width="0.6518" stroke-miterlimit="10" stroke-linecap="round" stroke-linejoin="round"/>
<path d="M126.926 162.539C126.926 167.882 123.006 172.207 118.165 172.207C113.323 172.207 109.403 167.882 109.403 162.539C109.403 157.196 113.323 152.871 118.165 152.871C122.995 152.858 126.926 157.196 126.926 162.539Z" fill="#FCE0EC"/>
<path d="M63.8329 150.412C63.8329 155.755 59.9129 160.08 55.0712 160.08C50.2296 160.08 46.3096 155.755 46.3096 150.412C46.3096 145.069 50.2296 140.744 55.0712 140.744C59.9129 140.744 63.8329 145.069 63.8329 150.412Z" fill="#FCE0EC"/>
<path d="M72.7235 138.182C72.7235 140.782 70.8102 142.906 68.4418 142.906C66.0852 142.906 64.1602 140.795 64.1602 138.182C64.1602 135.581 66.0735 133.457 68.4418 133.457C70.8102 133.47 72.7235 135.581 72.7235 138.182Z" fill="#11133D"/>
<path d="M113.671 145.469C113.671 148.069 111.758 150.193 109.39 150.193C107.033 150.193 105.108 148.082 105.108 145.469C105.108 142.868 107.021 140.744 109.39 140.744C111.758 140.744 113.671 142.855 113.671 145.469Z" fill="#11133D"/>
<path d="M74.801 203.568C74.801 211.022 70.5076 217.382 64.4993 219.789C62.8426 220.446 61.0576 220.806 59.191 220.806C51.8993 220.806 45.7743 215.284 44.0477 207.83C43.7327 206.465 43.5693 205.036 43.5693 203.568C43.5693 197.054 46.836 191.39 51.666 188.454C53.906 187.103 56.461 186.33 59.191 186.33C67.416 186.33 74.1593 193.372 74.7543 202.281C74.7893 202.706 74.801 203.131 74.801 203.568Z" fill="#FEBB64"/>
<path d="M74.7543 202.281C72.526 203.633 69.9593 204.405 67.241 204.405C58.9927 204.405 52.2493 197.376 51.666 188.454C53.906 187.103 56.461 186.33 59.191 186.33C67.416 186.33 74.1593 193.372 74.7543 202.281Z" fill="#F6A134"/>
<path d="M64.5005 219.79C62.8438 220.446 61.0588 220.807 59.1921 220.807C51.9005 220.807 45.7755 215.284 44.0488 207.83C45.7055 207.173 47.5022 206.813 49.3688 206.813C56.6605 206.813 62.7855 212.323 64.5005 219.79Z" fill="#F6A134"/>
<path d="M65.5498 188.171C65.5498 188.171 60.9298 204.289 53.7314 219.712" stroke="#292563" stroke-width="0.25" stroke-miterlimit="10"/>
<path d="M44.7822 196.9C44.7822 196.9 52.3655 204.495 73.0855 211.434" stroke="#292563" stroke-width="0.25" stroke-miterlimit="10"/>
</svg>
