<svg width="376" height="285" viewBox="0 0 376 285" fill="none" xmlns="http://www.w3.org/2000/svg">
<path d="M32.7444 29.2692C24.6086 33.9296 17.0802 41.5047 10.4799 53.0391C-2.68919 76.0525 2.04151 103.206 11.093 127.639C15.6159 139.849 21.209 151.355 26.161 161.298C26.7024 162.385 27.2363 163.454 27.7605 164.503C32.0234 173.035 35.6403 180.274 37.3756 185.572C39.3394 191.567 39.3124 200.632 38.1949 210.807C37.0758 220.996 34.8562 232.351 32.396 242.958C29.9355 253.566 27.2327 263.432 25.1452 270.647C24.1014 274.254 23.2114 277.199 22.5821 279.242C22.5166 279.455 22.4538 279.658 22.3941 279.851L313.578 280.852L315.232 70.5686L315.859 70.5732L314.205 280.905L314.034 280.903L314.031 281.515L22.1888 280.511C22.0536 280.945 21.9391 281.309 21.8473 281.6C21.7619 281.871 21.6962 282.077 21.6517 282.216L21.5852 282.424L21.5844 282.427C21.5842 282.427 21.5841 282.427 21.2873 282.321C20.9905 282.215 20.9906 282.215 20.9907 282.214L20.9915 282.212L21.0074 282.163L21.0575 282.006C21.1017 281.868 21.1672 281.662 21.2524 281.392C21.3292 281.149 21.422 280.853 21.5295 280.509L21.1681 280.508L21.1709 279.846L21.7352 279.848C21.8133 279.597 21.8969 279.326 21.9857 279.038C22.6139 276.998 23.5029 274.057 24.5455 270.454C26.6307 263.248 29.33 253.394 31.7869 242.801C34.244 232.207 36.4571 220.882 37.572 210.731C38.6885 200.566 38.6967 191.632 36.7829 185.789C35.0643 180.542 31.4728 173.353 27.2016 164.804C26.6791 163.758 26.1464 162.692 25.6057 161.606C20.6529 151.662 15.0455 140.127 10.5088 127.881C1.44093 103.403 -3.38471 75.9886 9.94309 52.6977C16.5912 41.08 24.196 33.4136 32.4457 28.688C40.6952 23.9625 49.5696 22.1889 58.7407 22.3241C76.7801 22.5902 96.0109 30.2464 113.963 37.3935L114.812 37.7314C123.867 41.3357 130.624 41.5211 136.531 39.6597C142.454 37.7932 147.557 33.8602 153.299 29.1405C153.876 28.6667 154.458 28.1852 155.049 27.6974L155.05 27.6962L155.057 27.6903C166.219 18.4658 180.087 7.00496 206.47 2.55385C234.313 -2.14377 261.586 14.8652 281.853 32.967C291.995 42.0257 300.402 51.3756 306.272 58.4601C309.208 62.0026 311.51 64.9795 313.079 67.0713C313.864 68.1173 314.465 68.942 314.87 69.5056C315.073 69.7874 315.226 70.004 315.329 70.1503L315.4 70.2504L315.446 70.3163L315.483 70.3695L315.485 70.3723C315.485 70.373 315.486 70.3733 315.232 70.5686C314.979 70.7639 314.979 70.7636 314.978 70.7631L314.977 70.7607L314.941 70.7092C314.925 70.6866 314.904 70.657 314.879 70.6206L314.826 70.5455C314.776 70.475 314.715 70.3879 314.641 70.2846C314.603 70.2306 314.561 70.1723 314.516 70.1097C314.498 70.0842 314.479 70.058 314.46 70.0311C314.431 69.9909 314.401 69.9492 314.37 69.9059C313.967 69.3456 313.369 68.5244 312.587 67.4822C311.024 65.3977 308.728 62.4293 305.8 58.8959C299.943 51.8284 291.559 42.5037 281.447 33.4721C261.207 15.3933 234.123 -1.44188 206.568 3.20709C180.347 7.63099 166.585 19.0036 155.44 28.2138C154.848 28.7031 154.263 29.1864 153.684 29.6622C147.949 34.3761 142.761 38.3868 136.71 40.2935C130.643 42.2053 123.743 41.9937 114.59 38.3504L113.796 38.0347C95.8026 30.8711 76.6594 23.25 58.7311 22.9856C49.6441 22.8516 40.8806 24.6087 32.7444 29.2692Z" fill="#F2D0D8" fill-opacity="0.38"/>
<path d="M32.7444 29.2692C24.6086 33.9296 17.0802 41.5047 10.4799 53.0391C-2.68919 76.0525 2.04151 103.206 11.093 127.639C15.6159 139.849 21.209 151.355 26.161 161.298C26.7024 162.385 27.2363 163.454 27.7605 164.503C32.0234 173.035 35.6403 180.274 37.3756 185.572C39.3394 191.567 39.3124 200.632 38.1949 210.807C37.0758 220.996 34.8562 232.351 32.396 242.958C29.9355 253.566 27.2327 263.432 25.1452 270.647C24.1014 274.254 23.2114 277.199 22.5821 279.242C22.5166 279.455 22.4538 279.658 22.3941 279.851L313.578 280.852L315.232 70.5686C314.979 70.7639 314.979 70.7636 314.978 70.7631L314.977 70.7607L314.941 70.7092L314.879 70.6206L314.826 70.5455C314.776 70.475 314.715 70.3879 314.641 70.2846C314.603 70.2306 314.561 70.1723 314.516 70.1097L314.46 70.0311L314.37 69.9059C313.967 69.3456 313.369 68.5244 312.587 67.4822C311.024 65.3977 308.728 62.4293 305.8 58.8959C299.943 51.8284 291.559 42.5037 281.447 33.4721C261.207 15.3933 234.123 -1.44188 206.568 3.20709C180.347 7.63099 166.585 19.0036 155.44 28.2138C154.848 28.7031 154.263 29.1864 153.684 29.6622C147.949 34.3761 142.761 38.3868 136.71 40.2935C130.643 42.2053 123.743 41.9937 114.59 38.3504L113.796 38.0347C95.8026 30.8711 76.6594 23.25 58.7311 22.9856C49.6441 22.8516 40.8806 24.6087 32.7444 29.2692Z" fill="#F2D0D8" fill-opacity="0.38"/>
<path d="M273.802 123.392C277.373 126.722 281.153 129.649 285.321 132.201C292.411 136.532 301.23 140.208 309.655 137.867C311.769 137.282 313.633 136.282 315.316 135.016C316.253 133.138 317.114 131.28 317.921 129.552C319.119 126.993 320.27 124.426 321.411 121.84C320.093 121.236 318.814 120.669 317.611 120.147C311.968 117.708 308.068 108.295 307.57 102.214L306.645 91.0166L283.881 91.3238L283.274 102.542C282.94 108.643 279.308 118.149 273.746 120.739C273.161 121.006 272.567 121.293 271.954 121.589C272.552 122.202 273.168 122.806 273.802 123.392Z" fill="#F0B6A1"/>
<path d="M305.87 97.6899C305.87 97.6899 297.309 103.652 293.079 102.614L292.985 102.587C288.699 101.559 283.885 92.2702 283.885 92.2702C286.358 95.2806 289.707 97.4997 293.993 98.5461L294.078 98.5636C298.308 99.6108 302.293 99.2044 305.87 97.6899Z" fill="#F09F82"/>
<path d="M354.426 255.99C356.707 269.888 355.663 279.321 355.663 279.321L241.535 280.861C241.535 280.861 241.041 271.031 242.64 257.888L242.64 257.879C243.006 254.737 243.52 251.408 244.163 247.975C245.068 243.239 246.26 238.305 247.835 233.421C248.435 231.585 249.092 229.739 249.804 227.919C251.77 222.891 254.187 218.005 257.171 213.52C258.04 212.227 258.939 210.981 259.884 209.771L259.203 206.551L255.607 189.58C254.153 189.878 252.67 190.102 251.177 190.299C249.778 190.476 248.359 190.615 246.94 190.709C242.916 190.995 238.952 190.965 235.464 190.808C233.949 190.745 232.508 190.644 231.198 190.541C226.398 190.169 223.203 189.646 223.203 189.646C223.203 189.646 227.823 172.704 233.178 158.118C233.295 157.801 233.412 157.484 233.529 157.157C233.538 157.148 233.538 157.139 233.538 157.139C235.024 153.175 236.541 149.414 238.038 146.258C241.151 139.701 248.405 133.868 255.567 129.382C256.882 128.548 258.217 127.76 259.515 127.037C267.09 122.722 273.615 120.174 273.615 120.174C275.631 116.649 279.333 114.743 279.333 114.743C279.333 114.743 282.915 120.151 286.877 125.424C288.05 127.004 289.277 128.575 290.438 129.988C293.082 133.21 295.462 135.59 296.534 135.39C297.708 135.17 300.065 132.002 302.553 128.126C303.458 126.722 304.39 125.206 305.266 123.71C308.416 118.443 311.129 113.386 311.129 113.386C311.129 113.386 316.778 117.606 318.488 120.163C318.488 120.163 325.681 122.571 333.797 126.73C335.059 127.382 336.358 128.069 337.659 128.813C343.991 132.411 350.308 136.985 353.719 142.219C354.789 143.856 355.843 145.661 356.879 147.558C357.983 149.576 359.06 151.696 360.1 153.853C365.897 165.885 370.38 178.826 370.38 178.826C370.38 178.826 354.439 183.755 341.162 184.723L337.897 205.61L336.937 211.71C336.937 211.71 337.461 212.464 338.332 213.863C341.354 218.694 348.55 231.18 352.341 246.051C352.39 246.218 352.43 246.403 352.47 246.569C353.311 249.88 353.935 253.036 354.426 255.99Z" fill="#FEBB64"/>
<path d="M259.505 127.028L259.505 127.055C259.584 128.038 259.318 129.025 259.089 130.012C258.869 130.999 258.743 131.984 258.58 132.97C258.416 133.956 258.234 134.942 258.033 135.928C257.971 136.226 257.675 136.406 257.384 136.345C257.169 136.302 257.007 136.137 256.967 135.943C256.729 134.962 256.528 133.981 256.327 133C256.145 132.019 255.991 131.038 255.734 130.057C255.675 129.826 255.606 129.604 255.556 129.373C256.881 128.539 258.206 127.75 259.505 127.028Z" fill="#EECD72"/>
<path d="M273.577 123.915C274.936 124.88 275.174 125.86 275.216 126.844C275.296 127.826 275.029 128.813 274.8 129.8C274.571 130.787 274.454 131.772 274.281 132.758C274.118 133.744 273.936 134.73 273.735 135.717C273.673 136.005 273.386 136.194 273.096 136.143C272.88 136.099 272.719 135.934 272.669 135.731C272.44 134.75 272.23 133.769 272.039 132.788C271.847 131.807 271.693 130.826 271.436 129.846C271.179 128.865 270.885 127.886 270.936 126.901C270.951 125.917 271.17 124.931 272.493 123.929C272.835 123.683 273.265 123.696 273.577 123.915Z" fill="#EECD72"/>
<path d="M290.428 129.979C290.244 130.835 290.144 131.681 289.997 132.546C289.834 133.532 289.651 134.518 289.451 135.504C289.389 135.802 289.093 135.982 288.802 135.921C288.587 135.878 288.425 135.713 288.385 135.519C288.147 134.538 287.946 133.557 287.745 132.576C287.563 131.595 287.409 130.613 287.152 129.633C286.905 128.653 286.601 127.673 286.652 126.689C286.656 126.281 286.706 125.844 286.868 125.415C288.04 127.004 289.268 128.575 290.428 129.979Z" fill="#EECD72"/>
<path d="M306.632 126.419C306.712 127.402 306.445 128.389 306.216 129.376C305.997 130.363 305.87 131.348 305.707 132.334C305.543 133.32 305.361 134.306 305.16 135.292C305.099 135.59 304.802 135.77 304.512 135.709C304.296 135.666 304.135 135.501 304.095 135.307C303.856 134.326 303.655 133.345 303.455 132.364C303.273 131.383 303.118 130.402 302.861 129.421C302.753 128.987 302.634 128.561 302.544 128.126C303.449 126.722 304.381 125.206 305.257 123.71C306.382 124.595 306.582 125.511 306.632 126.419Z" fill="#EECD72"/>
<path d="M320.691 123.279C322.05 124.244 322.289 125.225 322.331 126.208C322.41 127.19 322.143 128.178 321.914 129.164C321.685 130.151 321.569 131.136 321.396 132.122C321.232 133.108 321.05 134.094 320.849 135.081C320.787 135.369 320.5 135.559 320.21 135.507C319.994 135.463 319.833 135.299 319.783 135.095C319.555 134.114 319.344 133.134 319.153 132.153C318.961 131.172 318.807 130.19 318.55 129.21C318.293 128.23 317.999 127.25 318.051 126.265C318.065 125.282 318.284 124.295 319.607 123.293C319.949 123.048 320.379 123.06 320.691 123.279Z" fill="#EECD72"/>
<path d="M337.659 128.813C337.65 128.859 337.641 128.906 337.633 128.952C337.413 129.939 337.287 130.924 337.123 131.91C336.96 132.896 336.777 133.882 336.576 134.869C336.515 135.166 336.219 135.347 335.928 135.286C335.712 135.242 335.551 135.077 335.511 134.883C335.273 133.902 335.072 132.922 334.871 131.941C334.689 130.959 334.535 129.978 334.278 128.998C334.09 128.239 333.864 127.491 333.797 126.73C335.059 127.382 336.358 128.069 337.659 128.813Z" fill="#EECD72"/>
<path d="M233.52 157.148C233.476 157.362 233.441 157.557 233.398 157.772C233.371 157.911 233.28 158.024 233.169 158.099C233.286 157.782 233.412 157.465 233.52 157.148Z" fill="#EECD72"/>
<path d="M248.94 145.749C250.299 146.714 250.538 147.694 250.58 148.677C250.659 149.66 250.393 150.647 250.164 151.634C249.935 152.621 249.818 153.606 249.645 154.592C249.481 155.578 249.299 156.564 249.098 157.55C249.037 157.839 248.749 158.028 248.459 157.977C248.243 157.933 248.082 157.768 248.033 157.565C247.804 156.584 247.593 155.603 247.402 154.622C247.21 153.641 247.056 152.66 246.799 151.679C246.543 150.699 246.248 149.72 246.3 148.735C246.314 147.751 246.534 146.765 247.856 145.763C248.198 145.527 248.628 145.53 248.94 145.749Z" fill="#EECD72"/>
<path d="M264.647 145.537C266.007 146.502 266.245 147.482 266.287 148.465C266.366 149.448 266.1 150.435 265.871 151.422C265.642 152.409 265.525 153.394 265.352 154.38C265.188 155.366 265.006 156.352 264.805 157.338C264.744 157.627 264.457 157.816 264.166 157.765C263.95 157.721 263.789 157.556 263.74 157.353C263.511 156.372 263.301 155.391 263.109 154.41C262.918 153.429 262.763 152.448 262.507 151.467C262.25 150.487 261.955 149.508 262.007 148.523C262.021 147.539 262.241 146.553 263.563 145.551C263.905 145.315 264.335 145.318 264.647 145.537Z" fill="#EECD72"/>
<path d="M280.357 145.325C281.716 146.29 281.954 147.27 281.996 148.254C282.076 149.236 281.809 150.223 281.58 151.21C281.351 152.197 281.234 153.182 281.061 154.168C280.898 155.154 280.716 156.14 280.515 157.127C280.453 157.415 280.166 157.604 279.876 157.553C279.66 157.509 279.499 157.344 279.449 157.141C279.22 156.16 279.01 155.179 278.819 154.198C278.627 153.217 278.473 152.236 278.216 151.256C277.959 150.275 277.665 149.296 277.716 148.311C277.731 147.327 277.95 146.341 279.273 145.339C279.615 145.103 280.045 145.106 280.357 145.325Z" fill="#EECD72"/>
<path d="M296.064 145.113C297.423 146.078 297.661 147.058 297.703 148.042C297.783 149.024 297.516 150.011 297.287 150.998C297.058 151.985 296.941 152.97 296.769 153.956C296.605 154.942 296.423 155.928 296.222 156.914C296.16 157.203 295.873 157.392 295.583 157.341C295.367 157.297 295.206 157.132 295.156 156.929C294.927 155.948 294.717 154.967 294.526 153.986C294.334 153.005 294.18 152.024 293.923 151.044C293.666 150.063 293.372 149.084 293.424 148.099C293.438 147.115 293.657 146.129 294.98 145.127C295.322 144.891 295.752 144.894 296.064 145.113Z" fill="#EECD72"/>
<path d="M311.772 144.901C313.132 145.866 313.37 146.846 313.412 147.83C313.492 148.812 313.225 149.799 312.996 150.786C312.767 151.773 312.65 152.758 312.477 153.744C312.314 154.73 312.131 155.716 311.93 156.703C311.869 156.991 311.582 157.18 311.292 157.129C311.076 157.085 310.915 156.92 310.865 156.717C310.636 155.736 310.426 154.755 310.235 153.774C310.043 152.793 309.889 151.812 309.632 150.832C309.375 149.851 309.081 148.872 309.132 147.887C309.146 146.903 309.366 145.917 310.688 144.915C311.031 144.679 311.461 144.682 311.772 144.901Z" fill="#EECD72"/>
<path d="M327.482 144.689C328.842 145.654 329.08 146.634 329.122 147.618C329.201 148.6 328.935 149.587 328.706 150.574C328.477 151.561 328.36 152.546 328.187 153.532C328.023 154.518 327.841 155.504 327.64 156.491C327.579 156.779 327.292 156.969 327.001 156.917C326.786 156.873 326.624 156.708 326.575 156.505C326.346 155.524 326.136 154.543 325.944 153.562C325.753 152.581 325.599 151.6 325.342 150.62C325.085 149.639 324.79 148.66 324.842 147.675C324.856 146.691 325.076 145.705 326.398 144.703C326.731 144.467 327.17 144.47 327.482 144.689Z" fill="#EECD72"/>
<path d="M343.191 144.477C344.55 145.442 344.789 146.422 344.831 147.406C344.91 148.388 344.644 149.375 344.414 150.362C344.185 151.349 344.069 152.334 343.896 153.32C343.732 154.306 343.55 155.292 343.349 156.279C343.287 156.567 343 156.757 342.71 156.705C342.494 156.661 342.333 156.496 342.283 156.293C342.055 155.312 341.844 154.332 341.653 153.35C341.461 152.369 341.307 151.388 341.05 150.408C340.793 149.427 340.499 148.448 340.551 147.463C340.565 146.479 340.784 145.493 342.107 144.491C342.44 144.255 342.879 144.258 343.191 144.477Z" fill="#EECD72"/>
<path d="M360.11 153.853C359.98 154.597 359.841 155.323 359.683 156.067C359.622 156.356 359.335 156.545 359.035 156.484C358.819 156.432 358.658 156.276 358.618 156.082C358.389 155.101 358.188 154.12 357.988 153.139C357.796 152.149 357.642 151.167 357.394 150.187C357.157 149.309 356.902 148.43 356.89 147.558C357.993 149.576 359.061 151.696 360.11 153.853Z" fill="#EECD72"/>
<path d="M242.741 165.487C244.101 166.452 244.339 167.433 244.381 168.416C244.46 169.398 244.194 170.386 243.965 171.372C243.736 172.359 243.619 173.344 243.446 174.33C243.283 175.316 243.1 176.302 242.899 177.289C242.838 177.577 242.551 177.767 242.26 177.715C242.045 177.672 241.884 177.507 241.834 177.303C241.605 176.323 241.395 175.342 241.203 174.361C241.012 173.38 240.858 172.398 240.601 171.418C240.344 170.438 240.05 169.458 240.101 168.474C240.115 167.49 240.335 166.503 241.657 165.502C242 165.256 242.43 165.268 242.741 165.487Z" fill="#EECD72"/>
<path d="M258.449 165.275C259.809 166.24 260.047 167.221 260.089 168.204C260.168 169.186 259.902 170.174 259.673 171.16C259.444 172.147 259.327 173.132 259.154 174.118C258.99 175.104 258.808 176.09 258.607 177.077C258.546 177.365 258.259 177.555 257.968 177.503C257.753 177.46 257.591 177.295 257.542 177.091C257.313 176.111 257.103 175.13 256.911 174.149C256.72 173.168 256.566 172.186 256.309 171.206C256.052 170.226 255.758 169.246 255.809 168.262C255.823 167.278 256.043 166.291 257.365 165.29C257.708 165.044 258.138 165.056 258.449 165.275Z" fill="#EECD72"/>
<path d="M274.158 165.063C275.518 166.028 275.756 167.009 275.798 167.992C275.877 168.974 275.611 169.962 275.382 170.948C275.153 171.935 275.036 172.92 274.863 173.906C274.699 174.892 274.517 175.878 274.316 176.865C274.255 177.153 273.968 177.343 273.677 177.291C273.461 177.248 273.3 177.083 273.251 176.879C273.022 175.899 272.812 174.918 272.62 173.937C272.429 172.956 272.274 171.974 272.018 170.994C271.761 170.014 271.466 169.034 271.518 168.05C271.532 167.066 271.752 166.079 273.074 165.078C273.416 164.832 273.846 164.844 274.158 165.063Z" fill="#EECD72"/>
<path d="M289.867 164.851C291.226 165.816 291.465 166.797 291.506 167.78C291.586 168.762 291.319 169.75 291.09 170.736C290.861 171.723 290.745 172.708 290.572 173.694C290.408 174.68 290.226 175.666 290.025 176.653C289.963 176.941 289.676 177.131 289.386 177.079C289.17 177.036 289.009 176.871 288.959 176.667C288.731 175.687 288.52 174.706 288.329 173.725C288.137 172.744 287.983 171.762 287.726 170.782C287.469 169.802 287.175 168.822 287.227 167.838C287.241 166.854 287.46 165.867 288.783 164.866C289.116 164.62 289.555 164.632 289.867 164.851Z" fill="#EECD72"/>
<path d="M305.576 164.639C306.936 165.604 307.174 166.585 307.216 167.568C307.295 168.55 307.029 169.538 306.8 170.525C306.571 171.511 306.454 172.497 306.281 173.483C306.118 174.468 305.935 175.454 305.734 176.441C305.673 176.729 305.386 176.919 305.095 176.867C304.88 176.824 304.719 176.659 304.669 176.455C304.44 175.475 304.23 174.494 304.038 173.513C303.847 172.532 303.693 171.55 303.436 170.57C303.179 169.59 302.885 168.61 302.936 167.626C302.95 166.642 303.17 165.655 304.492 164.654C304.825 164.408 305.265 164.42 305.576 164.639Z" fill="#EECD72"/>
<path d="M321.274 164.427C322.634 165.393 322.872 166.373 322.914 167.356C322.993 168.339 322.727 169.326 322.498 170.313C322.269 171.299 322.152 172.285 321.979 173.271C321.816 174.257 321.633 175.243 321.432 176.229C321.371 176.518 321.084 176.707 320.793 176.655C320.578 176.612 320.417 176.447 320.367 176.243C320.138 175.263 319.928 174.282 319.736 173.301C319.545 172.32 319.391 171.338 319.134 170.358C318.877 169.378 318.583 168.398 318.634 167.414C318.648 166.43 318.868 165.443 320.19 164.442C320.533 164.196 320.963 164.209 321.274 164.427Z" fill="#EECD72"/>
<path d="M336.983 164.215C338.343 165.181 338.581 166.161 338.623 167.144C338.702 168.127 338.436 169.114 338.207 170.101C337.978 171.087 337.861 172.073 337.688 173.059C337.524 174.045 337.342 175.031 337.141 176.017C337.08 176.306 336.793 176.495 336.502 176.443C336.287 176.4 336.125 176.235 336.076 176.031C335.847 175.051 335.637 174.07 335.445 173.089C335.254 172.108 335.1 171.126 334.843 170.146C334.586 169.166 334.291 168.186 334.343 167.202C334.357 166.218 334.577 165.231 335.899 164.23C336.241 163.984 336.672 163.997 336.983 164.215Z" fill="#EECD72"/>
<path d="M352.692 164.003C354.051 164.969 354.29 165.949 354.332 166.932C354.411 167.915 354.145 168.902 353.916 169.889C353.687 170.875 353.57 171.861 353.397 172.847C353.233 173.833 353.051 174.819 352.85 175.805C352.788 176.094 352.501 176.283 352.211 176.231C351.995 176.188 351.834 176.023 351.785 175.819C351.556 174.839 351.345 173.858 351.154 172.877C350.962 171.896 350.808 170.914 350.551 169.934C350.295 168.954 350 167.974 350.052 166.99C350.066 166.006 350.285 165.019 351.608 164.018C351.95 163.772 352.38 163.785 352.692 164.003Z" fill="#EECD72"/>
<path d="M235.453 190.038C235.475 190.288 235.47 190.548 235.454 190.799C233.939 190.736 232.499 190.634 231.189 190.532C231.186 190.383 231.184 190.244 231.192 190.095C231.206 189.111 231.416 188.125 232.748 187.123C233.062 186.878 233.501 186.881 233.813 187.109C235.173 188.074 235.411 189.055 235.453 190.038Z" fill="#EECD72"/>
<path d="M251.161 189.826C251.173 189.983 251.175 190.132 251.168 190.29C249.768 190.466 248.35 190.606 246.93 190.7C246.899 190.44 246.876 190.162 246.9 189.883C246.914 188.9 247.124 187.913 248.456 186.911C248.77 186.666 249.21 186.669 249.521 186.897C250.881 187.862 251.119 188.843 251.161 189.826Z" fill="#EECD72"/>
<path d="M265.231 186.685C266.59 187.65 266.828 188.631 266.87 189.614C266.95 190.596 266.683 191.584 266.454 192.57C266.225 193.557 266.108 194.542 265.935 195.528C265.772 196.514 265.59 197.5 265.389 198.487C265.327 198.775 265.04 198.965 264.75 198.913C264.534 198.87 264.373 198.705 264.323 198.501C264.094 197.521 263.884 196.54 263.693 195.559C263.501 194.578 263.347 193.596 263.09 192.616C262.833 191.636 262.539 190.656 262.59 189.672C262.605 188.688 262.824 187.701 264.147 186.7C264.489 186.454 264.919 186.466 265.231 186.685Z" fill="#EECD72"/>
<path d="M280.939 186.473C282.298 187.438 282.536 188.419 282.578 189.402C282.658 190.384 282.391 191.372 282.162 192.358C281.933 193.345 281.816 194.33 281.643 195.316C281.48 196.302 281.298 197.288 281.097 198.275C281.035 198.563 280.748 198.753 280.458 198.701C280.242 198.658 280.081 198.493 280.031 198.289C279.802 197.309 279.592 196.328 279.401 195.347C279.209 194.366 279.055 193.384 278.798 192.404C278.541 191.424 278.247 190.444 278.298 189.46C278.313 188.476 278.532 187.489 279.855 186.488C280.197 186.242 280.627 186.254 280.939 186.473Z" fill="#EECD72"/>
<path d="M296.647 186.261C298.007 187.226 298.245 188.207 298.287 189.19C298.366 190.172 298.1 191.16 297.871 192.146C297.642 193.133 297.525 194.118 297.352 195.104C297.189 196.09 297.006 197.076 296.805 198.063C296.744 198.351 296.457 198.541 296.166 198.489C295.951 198.446 295.79 198.281 295.74 198.077C295.511 197.097 295.301 196.116 295.109 195.135C294.918 194.154 294.764 193.172 294.507 192.192C294.25 191.212 293.956 190.232 294.007 189.248C294.021 188.264 294.241 187.277 295.563 186.276C295.906 186.03 296.336 186.042 296.647 186.261Z" fill="#EECD72"/>
<path d="M312.355 186.049C313.715 187.014 313.953 187.995 313.995 188.978C314.074 189.96 313.808 190.948 313.579 191.934C313.35 192.921 313.233 193.906 313.06 194.892C312.897 195.878 312.714 196.864 312.513 197.851C312.452 198.139 312.165 198.329 311.874 198.277C311.659 198.234 311.498 198.069 311.448 197.865C311.219 196.885 311.009 195.904 310.817 194.923C310.626 193.942 310.472 192.96 310.215 191.98C309.958 191 309.664 190.02 309.715 189.036C309.729 188.052 309.949 187.065 311.271 186.064C311.614 185.818 312.044 185.83 312.355 186.049Z" fill="#EECD72"/>
<path d="M328.066 185.837C329.425 186.802 329.663 187.783 329.705 188.766C329.785 189.749 329.518 190.736 329.289 191.723C329.06 192.709 328.943 193.695 328.771 194.681C328.607 195.666 328.425 196.653 328.224 197.639C328.162 197.927 327.875 198.117 327.585 198.065C327.369 198.022 327.208 197.857 327.158 197.653C326.929 196.673 326.719 195.692 326.528 194.711C326.336 193.73 326.182 192.748 325.925 191.768C325.668 190.788 325.374 189.808 325.426 188.824C325.44 187.84 325.659 186.853 326.982 185.852C327.315 185.606 327.754 185.619 328.066 185.837Z" fill="#EECD72"/>
<path d="M260.673 209.352C260.753 210.335 260.486 211.322 260.257 212.309C260.037 213.295 259.911 214.281 259.748 215.276C259.584 216.262 259.402 217.248 259.201 218.234C259.14 218.523 258.843 218.712 258.553 218.651C258.337 218.599 258.176 218.443 258.136 218.249C257.897 217.268 257.696 216.287 257.496 215.306C257.384 214.705 257.282 214.103 257.162 213.511C258.031 212.218 258.93 210.972 259.875 209.762L259.194 206.542C260.413 207.472 260.632 208.406 260.673 209.352Z" fill="#EECD72"/>
<path d="M274.742 206.211C276.101 207.177 276.339 208.157 276.381 209.14C276.461 210.123 276.194 211.11 275.965 212.097C275.736 213.084 275.619 214.069 275.446 215.055C275.283 216.041 275.101 217.027 274.9 218.013C274.838 218.302 274.551 218.491 274.261 218.439C274.045 218.396 273.884 218.231 273.834 218.028C273.605 217.047 273.395 216.066 273.204 215.085C273.012 214.104 272.858 213.122 272.601 212.142C272.344 211.162 272.05 210.182 272.101 209.198C272.116 208.214 272.335 207.228 273.658 206.226C274 205.98 274.43 205.984 274.742 206.211Z" fill="#EECD72"/>
<path d="M290.451 205.999C291.811 206.965 292.049 207.945 292.091 208.928C292.17 209.911 291.904 210.898 291.675 211.885C291.446 212.872 291.329 213.857 291.156 214.843C290.992 215.829 290.81 216.815 290.609 217.801C290.548 218.09 290.261 218.279 289.97 218.227C289.755 218.184 289.593 218.019 289.544 217.816C289.315 216.835 289.105 215.854 288.913 214.873C288.722 213.892 288.568 212.911 288.311 211.93C288.054 210.95 287.76 209.97 287.811 208.986C287.825 208.002 288.045 207.016 289.367 206.014C289.7 205.768 290.139 205.772 290.451 205.999Z" fill="#EECD72"/>
<path d="M306.158 205.787C307.518 206.753 307.756 207.733 307.798 208.716C307.877 209.699 307.611 210.686 307.382 211.673C307.153 212.66 307.036 213.645 306.863 214.631C306.7 215.617 306.517 216.603 306.316 217.589C306.255 217.878 305.968 218.067 305.677 218.016C305.462 217.972 305.301 217.807 305.251 217.604C305.022 216.623 304.812 215.642 304.62 214.661C304.429 213.68 304.275 212.699 304.018 211.718C303.761 210.738 303.467 209.758 303.518 208.774C303.532 207.79 303.752 206.804 305.074 205.802C305.407 205.556 305.847 205.56 306.158 205.787Z" fill="#EECD72"/>
<path d="M321.858 205.576C323.218 206.541 323.456 207.521 323.498 208.504C323.577 209.487 323.311 210.474 323.082 211.461C322.853 212.448 322.736 213.433 322.563 214.419C322.399 215.405 322.217 216.391 322.016 217.377C321.955 217.666 321.668 217.855 321.377 217.804C321.161 217.76 321 217.595 320.951 217.392C320.722 216.411 320.512 215.43 320.32 214.449C320.129 213.468 319.974 212.487 319.718 211.506C319.461 210.526 319.166 209.547 319.218 208.562C319.232 207.578 319.452 206.592 320.774 205.59C321.116 205.344 321.546 205.348 321.858 205.576Z" fill="#EECD72"/>
<path d="M338.342 213.863C338.325 213.984 338.298 214.095 338.281 214.216C338.118 215.202 337.935 216.188 337.734 217.175C337.673 217.463 337.377 217.653 337.086 217.592C336.87 217.539 336.709 217.383 336.669 217.189C336.431 216.208 336.23 215.228 336.029 214.247C335.847 213.256 335.693 212.274 335.436 211.294C335.188 210.314 334.885 209.334 334.936 208.35C334.95 207.366 335.17 206.38 336.502 205.378C336.816 205.142 337.255 205.145 337.567 205.364C337.69 205.445 337.803 205.527 337.898 205.61L336.937 211.71C336.947 211.71 337.471 212.473 338.342 213.863Z" fill="#EECD72"/>
<path d="M251.746 230.965C251.825 231.957 251.559 232.944 251.339 233.931C251.11 234.917 250.984 235.903 250.82 236.889C250.666 237.874 250.474 238.861 250.273 239.847C250.212 240.145 249.925 240.325 249.625 240.264C249.409 240.221 249.248 240.056 249.208 239.861C248.979 238.881 248.769 237.9 248.577 236.919C248.386 235.938 248.232 234.956 247.975 233.976C247.925 233.782 247.876 233.597 247.827 233.403C248.427 231.566 249.083 229.72 249.795 227.901C249.898 227.918 250.011 227.963 250.106 228.036C251.465 229.001 251.704 229.982 251.746 230.965Z" fill="#EECD72"/>
<path d="M265.813 227.833C267.173 228.799 267.411 229.779 267.453 230.762C267.533 231.745 267.266 232.732 267.037 233.719C266.808 234.706 266.691 235.691 266.518 236.677C266.355 237.663 266.172 238.649 265.971 239.635C265.91 239.924 265.623 240.113 265.332 240.061C265.117 240.018 264.956 239.853 264.906 239.65C264.677 238.669 264.467 237.688 264.275 236.707C264.084 235.726 263.93 234.744 263.673 233.764C263.416 232.784 263.122 231.804 263.173 230.82C263.187 229.836 263.407 228.849 264.729 227.848C265.072 227.602 265.502 227.615 265.813 227.833Z" fill="#EECD72"/>
<path d="M281.522 227.621C282.882 228.587 283.12 229.567 283.162 230.55C283.241 231.533 282.975 232.52 282.746 233.507C282.517 234.493 282.4 235.479 282.227 236.465C282.063 237.451 281.881 238.437 281.68 239.423C281.619 239.712 281.332 239.901 281.041 239.849C280.826 239.806 280.664 239.641 280.615 239.437C280.386 238.457 280.176 237.476 279.984 236.495C279.793 235.514 279.639 234.532 279.382 233.552C279.125 232.572 278.831 231.592 278.882 230.608C278.896 229.624 279.116 228.637 280.438 227.636C280.78 227.39 281.211 227.403 281.522 227.621Z" fill="#EECD72"/>
<path d="M297.231 227.409C298.59 228.375 298.829 229.355 298.871 230.338C298.95 231.321 298.684 232.308 298.455 233.295C298.226 234.282 298.109 235.267 297.936 236.253C297.772 237.239 297.59 238.225 297.389 239.211C297.328 239.5 297.04 239.689 296.75 239.637C296.534 239.594 296.373 239.429 296.324 239.226C296.095 238.245 295.885 237.264 295.693 236.283C295.502 235.302 295.347 234.32 295.09 233.34C294.834 232.36 294.539 231.38 294.591 230.396C294.605 229.412 294.825 228.425 296.147 227.424C296.489 227.178 296.919 227.191 297.231 227.409Z" fill="#EECD72"/>
<path d="M312.939 227.197C314.298 228.163 314.537 229.143 314.579 230.126C314.658 231.109 314.392 232.096 314.163 233.083C313.934 234.07 313.817 235.055 313.644 236.041C313.48 237.027 313.298 238.013 313.097 238.999C313.035 239.288 312.748 239.477 312.458 239.425C312.242 239.382 312.081 239.217 312.032 239.014C311.803 238.033 311.592 237.052 311.401 236.071C311.209 235.09 311.055 234.108 310.798 233.128C310.542 232.148 310.247 231.168 310.299 230.184C310.313 229.2 310.532 228.213 311.855 227.212C312.197 226.966 312.627 226.979 312.939 227.197Z" fill="#EECD72"/>
<path d="M328.648 226.985C330.007 227.951 330.245 228.931 330.287 229.914C330.367 230.897 330.1 231.884 329.871 232.871C329.642 233.858 329.525 234.843 329.352 235.829C329.189 236.815 329.007 237.801 328.806 238.787C328.744 239.076 328.457 239.265 328.167 239.213C327.951 239.17 327.79 239.005 327.74 238.802C327.511 237.821 327.301 236.84 327.11 235.859C326.918 234.878 326.764 233.896 326.507 232.916C326.25 231.936 325.956 230.956 326.007 229.972C326.022 228.988 326.241 228.001 327.564 227C327.897 226.754 328.336 226.767 328.648 226.985Z" fill="#EECD72"/>
<path d="M344.356 226.773C345.716 227.739 345.954 228.719 345.996 229.702C346.075 230.685 345.809 231.672 345.58 232.659C345.351 233.646 345.234 234.631 345.061 235.617C344.898 236.603 344.715 237.589 344.514 238.575C344.453 238.864 344.166 239.053 343.875 239.001C343.66 238.958 343.499 238.793 343.449 238.59C343.22 237.609 343.01 236.628 342.818 235.647C342.627 234.666 342.473 233.684 342.216 232.704C341.959 231.724 341.665 230.744 341.716 229.76C341.73 228.776 341.95 227.79 343.272 226.788C343.605 226.542 344.045 226.555 344.356 226.773Z" fill="#EECD72"/>
<path d="M245.549 250.713C245.628 251.695 245.362 252.682 245.133 253.669C244.913 254.656 244.787 255.641 244.623 256.627C244.459 257.613 244.277 258.599 244.076 259.585C244.015 259.883 243.718 260.064 243.428 260.003C243.212 259.959 243.051 259.794 243.011 259.6C242.872 259.026 242.752 258.462 242.631 257.888C242.631 257.888 242.622 257.888 242.631 257.879C242.998 254.737 243.512 251.408 244.155 247.975C245.298 248.879 245.508 249.794 245.549 250.713Z" fill="#EECD72"/>
<path d="M259.616 247.572C260.976 248.537 261.214 249.517 261.256 250.501C261.336 251.483 261.069 252.47 260.84 253.457C260.611 254.444 260.494 255.429 260.321 256.415C260.158 257.401 259.975 258.387 259.774 259.374C259.713 259.662 259.426 259.852 259.136 259.8C258.92 259.756 258.759 259.591 258.709 259.388C258.48 258.407 258.27 257.427 258.079 256.445C257.887 255.464 257.733 254.483 257.476 253.503C257.219 252.522 256.925 251.543 256.976 250.558C256.99 249.574 257.21 248.588 258.532 247.586C258.875 247.34 259.305 247.344 259.616 247.572Z" fill="#EECD72"/>
<path d="M275.325 247.36C276.685 248.325 276.923 249.305 276.965 250.289C277.044 251.271 276.778 252.258 276.549 253.245C276.32 254.232 276.203 255.217 276.03 256.203C275.866 257.189 275.684 258.175 275.483 259.162C275.422 259.45 275.135 259.64 274.844 259.588C274.629 259.544 274.467 259.379 274.418 259.176C274.189 258.195 273.979 257.215 273.787 256.233C273.596 255.252 273.442 254.271 273.185 253.291C272.928 252.31 272.634 251.331 272.685 250.346C272.699 249.362 272.919 248.376 274.241 247.374C274.584 247.128 275.014 247.132 275.325 247.36Z" fill="#EECD72"/>
<path d="M291.035 247.148C292.394 248.113 292.633 249.093 292.675 250.077C292.754 251.059 292.488 252.046 292.258 253.033C292.029 254.02 291.913 255.005 291.74 255.991C291.576 256.977 291.394 257.963 291.193 258.95C291.131 259.238 290.844 259.428 290.554 259.376C290.338 259.332 290.177 259.167 290.127 258.964C289.899 257.983 289.688 257.003 289.497 256.021C289.305 255.04 289.151 254.059 288.894 253.079C288.637 252.098 288.343 251.119 288.395 250.134C288.409 249.15 288.628 248.164 289.951 247.162C290.284 246.917 290.723 246.92 291.035 247.148Z" fill="#EECD72"/>
<path d="M306.742 246.936C308.101 247.901 308.34 248.882 308.382 249.865C308.461 250.847 308.195 251.835 307.966 252.821C307.737 253.808 307.62 254.793 307.447 255.779C307.283 256.765 307.101 257.751 306.9 258.738C306.839 259.026 306.551 259.216 306.261 259.164C306.045 259.12 305.884 258.955 305.835 258.752C305.606 257.771 305.395 256.791 305.204 255.81C305.012 254.828 304.858 253.847 304.601 252.867C304.345 251.886 304.05 250.907 304.102 249.922C304.116 248.939 304.336 247.952 305.658 246.95C305.991 246.705 306.43 246.708 306.742 246.936Z" fill="#EECD72"/>
<path d="M322.442 246.724C323.801 247.689 324.039 248.67 324.081 249.653C324.161 250.635 323.894 251.623 323.665 252.609C323.436 253.596 323.319 254.581 323.146 255.567C322.983 256.553 322.801 257.539 322.6 258.526C322.538 258.814 322.251 259.004 321.961 258.952C321.745 258.909 321.584 258.744 321.534 258.54C321.305 257.56 321.095 256.579 320.904 255.598C320.712 254.617 320.558 253.635 320.301 252.655C320.044 251.675 319.75 250.695 319.801 249.711C319.816 248.727 320.035 247.74 321.358 246.739C321.7 246.493 322.13 246.496 322.442 246.724Z" fill="#EECD72"/>
<path d="M338.15 246.512C339.51 247.477 339.748 248.458 339.79 249.441C339.869 250.423 339.603 251.411 339.374 252.397C339.145 253.384 339.028 254.369 338.855 255.355C338.692 256.341 338.509 257.327 338.308 258.314C338.247 258.602 337.96 258.792 337.669 258.74C337.454 258.697 337.293 258.532 337.243 258.328C337.014 257.348 336.804 256.367 336.612 255.386C336.421 254.405 336.267 253.423 336.01 252.443C335.753 251.463 335.459 250.483 335.51 249.499C335.524 248.515 335.744 247.528 337.066 246.527C337.409 246.281 337.839 246.284 338.15 246.512Z" fill="#EECD72"/>
<path d="M354.427 255.99C354.296 256.697 354.166 257.404 354.027 258.102C353.965 258.4 353.669 258.58 353.378 258.519C353.163 258.475 353.001 258.31 352.961 258.116C352.723 257.136 352.522 256.155 352.321 255.174C352.139 254.193 351.985 253.211 351.728 252.231C351.481 251.25 351.177 250.271 351.228 249.286C351.244 248.386 351.427 247.493 352.47 246.569C353.312 249.88 353.936 253.036 354.427 255.99Z" fill="#EECD72"/>
<path d="M252.328 272.123C252.407 273.105 252.141 274.092 251.921 275.079C251.692 276.066 251.566 277.051 251.403 278.046C251.256 278.948 251.092 279.842 250.908 280.735L249.74 280.751C249.531 279.853 249.341 278.965 249.169 278.076C248.978 277.086 248.823 276.105 248.566 275.124C248.319 274.144 248.025 273.164 248.076 272.18C248.09 271.196 248.301 270.21 249.632 269.208C249.947 268.972 250.386 268.975 250.698 269.194C252.048 270.159 252.286 271.139 252.328 272.123Z" fill="#EECD72"/>
<path d="M268.037 271.911C268.116 272.893 267.85 273.88 267.63 274.867C267.401 275.854 267.275 276.839 267.111 277.834C266.965 278.736 266.8 279.63 266.617 280.523L265.449 280.539C265.24 279.641 265.049 278.753 264.878 277.864C264.686 276.874 264.532 275.892 264.275 274.912C264.028 273.932 263.733 272.952 263.785 271.968C263.799 270.984 264.009 269.998 265.341 268.996C265.655 268.76 266.095 268.763 266.406 268.982C267.757 269.947 267.995 270.927 268.037 271.911Z" fill="#EECD72"/>
<path d="M283.746 271.699C283.825 272.681 283.558 273.668 283.339 274.655C283.11 275.642 282.984 276.627 282.82 277.622C282.674 278.524 282.509 279.418 282.325 280.311L281.157 280.327C280.948 279.429 280.758 278.541 280.587 277.652C280.395 276.662 280.241 275.681 279.984 274.7C279.736 273.72 279.442 272.74 279.494 271.756C279.508 270.772 279.718 269.786 281.05 268.784C281.364 268.548 281.804 268.551 282.115 268.77C283.465 269.735 283.704 270.715 283.746 271.699Z" fill="#EECD72"/>
<path d="M299.454 271.487C299.534 272.469 299.267 273.456 299.048 274.443C298.819 275.43 298.692 276.415 298.529 277.41C298.383 278.312 298.218 279.206 298.034 280.099L296.866 280.115C296.657 279.217 296.467 278.329 296.295 277.44C296.104 276.45 295.95 275.469 295.693 274.488C295.445 273.508 295.151 272.528 295.202 271.544C295.216 270.56 295.427 269.574 296.759 268.572C297.073 268.336 297.512 268.339 297.824 268.558C299.174 269.523 299.403 270.504 299.454 271.487Z" fill="#EECD72"/>
<path d="M315.164 271.275C315.243 272.257 314.977 273.245 314.757 274.231C314.528 275.218 314.402 276.203 314.238 277.198C314.092 278.101 313.927 278.994 313.744 279.887L312.576 279.903C312.367 279.005 312.176 278.117 312.005 277.229C311.813 276.238 311.659 275.257 311.402 274.276C311.155 273.296 310.861 272.316 310.912 271.332C310.926 270.348 311.136 269.362 312.468 268.36C312.783 268.124 313.222 268.127 313.533 268.346C314.874 269.311 315.113 270.292 315.164 271.275Z" fill="#EECD72"/>
<path d="M330.873 271.063C330.952 272.045 330.686 273.033 330.466 274.019C330.237 275.006 330.111 275.991 329.947 276.987C329.801 277.889 329.636 278.782 329.453 279.675L328.284 279.691C328.075 278.794 327.885 277.905 327.714 277.017C327.522 276.026 327.368 275.045 327.111 274.065C326.864 273.084 326.569 272.105 326.621 271.12C326.635 270.136 326.845 269.15 328.177 268.148C328.491 267.912 328.931 267.915 329.242 268.134C330.583 269.099 330.821 270.08 330.873 271.063Z" fill="#EECD72"/>
<path d="M346.571 270.851C346.65 271.833 346.384 272.821 346.164 273.807C345.935 274.794 345.809 275.779 345.645 276.775C345.499 277.677 345.334 278.57 345.151 279.463L343.982 279.479C343.773 278.582 343.583 277.693 343.412 276.805C343.22 275.814 343.066 274.833 342.809 273.853C342.562 272.872 342.267 271.893 342.319 270.908C342.333 269.924 342.543 268.938 343.875 267.936C344.189 267.7 344.629 267.703 344.94 267.922C346.29 268.887 346.529 269.868 346.571 270.851Z" fill="#EECD72"/>
<path d="M275.085 123.012C277.721 125.668 280.255 128.371 282.854 131.027C285.434 133.702 288.069 136.302 290.65 139.014C287.582 136.856 284.798 134.342 282.181 131.668C279.591 128.984 277.158 126.13 275.085 123.012Z" fill="#D15821"/>
<path d="M308.53 134.384C309.723 132.187 311.143 130.163 312.629 128.176C314.125 126.207 315.686 124.274 317.475 122.524C316.282 124.721 314.862 126.754 313.376 128.732C311.871 130.701 310.309 132.625 308.53 134.384Z" fill="#D15821"/>
<path d="M228.638 190.093C229.267 185.685 230.149 181.321 231.125 176.974C232.111 172.627 233.274 168.334 234.559 164.057C235.23 161.932 235.939 159.816 236.713 157.717C237.487 155.628 238.27 153.53 239.223 151.503C241.082 147.46 243.174 143.404 246.315 140.197C244.891 141.915 243.712 143.805 242.684 145.768C241.637 147.722 240.721 149.748 239.881 151.791C238.191 155.888 236.737 160.084 235.46 164.332C234.109 168.554 232.964 172.848 231.829 177.141C231.261 179.293 230.721 181.443 230.201 183.603C229.642 185.755 229.15 187.923 228.638 190.093Z" fill="#D15821"/>
<path d="M249.663 136.951C252.185 138.151 254.398 139.968 256.24 142.059C258.074 144.168 259.567 146.598 260.408 149.241C258.898 146.913 257.334 144.698 255.529 142.662C253.762 140.607 251.773 138.76 249.663 136.951Z" fill="#D15821"/>
<path d="M338.005 137.559C338.372 136.384 339.246 135.435 340.255 134.754C341.283 134.09 342.502 133.675 343.737 133.788C342.671 134.387 341.697 134.901 340.771 135.526C339.826 136.133 338.976 136.822 338.005 137.559Z" fill="#D15821"/>
<path d="M255.39 220.503C254.704 222.916 254.038 225.338 253.455 227.777C252.835 230.208 252.272 232.656 251.746 235.103C250.694 240.008 249.754 244.93 249.058 249.885C248.25 254.833 247.816 259.822 247.475 264.82L247.285 268.571C247.228 269.825 247.256 271.077 247.236 272.33C247.122 274.837 247.344 277.34 247.371 279.854C246.804 274.86 246.574 269.824 246.765 264.792C246.964 259.76 247.407 254.743 248.15 249.759C248.93 244.783 249.86 239.834 251.071 234.955C252.254 230.067 253.643 225.223 255.39 220.503Z" fill="#D15821"/>
<path d="M338.24 218.773C340.567 223.363 342.495 228.144 344.218 232.993C345.932 237.841 347.339 242.806 348.541 247.81C349.612 252.853 350.423 257.946 350.804 263.082C351.064 268.229 350.894 273.4 349.994 278.46C350.145 275.897 350.492 273.359 350.381 270.79C350.485 268.236 350.215 265.679 350.085 263.129C349.564 258.041 348.764 252.994 347.627 247.999C346.51 243.002 345.103 238.075 343.539 233.206C342.766 230.766 341.928 228.337 341.024 225.937C340.177 223.526 339.227 221.145 338.24 218.773Z" fill="#D15821"/>
<path d="M325.236 80.6413C323.946 79.3503 322.266 79.5121 321.075 79.8901C322.056 77.2229 322.792 74.4011 323.246 71.5182C325.79 55.1049 307.017 49.5305 307.017 49.5305L305.554 49.1698C305.554 49.1698 286.34 45.3738 280.861 61.0657C279.9 63.8255 279.221 66.6558 278.84 69.4727C277.958 68.5845 276.552 67.6662 274.803 68.2002C271.918 69.0929 272.566 80.4983 279.097 81.6816C280.746 89.8813 285.579 96.4976 294.001 98.5368C302.405 100.651 309.794 97.0338 315.105 90.559C321.432 92.5523 327.369 82.7655 325.236 80.6413Z" fill="#F0B6A1"/>
<path d="M302.307 77.9441C302.307 77.9441 303.538 79.0226 303.229 80.363C302.921 81.7035 301.984 81.4934 301.984 81.4934C301.984 81.4934 300.703 81.455 300.326 81.2467C300.062 81.1018 299.642 80.4857 299.642 80.4857C299.642 80.4857 299.124 76.9014 302.307 77.9441Z" fill="#F09F82"/>
<path d="M301.742 81.4873C302.413 81.3669 302.741 80.7964 302.781 80.3133C302.821 79.7931 302.636 79.276 302.339 78.7696C302.195 78.5024 302.033 78.2726 301.851 77.9595C301.621 77.5543 301.633 77.0902 301.74 76.7361C301.963 76.0185 302.442 75.5109 302.988 75.1231C302.716 75.7207 302.491 76.3362 302.433 76.8752C302.419 77.1445 302.459 77.3667 302.573 77.5136C302.735 77.7434 302.945 78.0376 303.118 78.3322C303.453 78.9309 303.698 79.7163 303.456 80.462C303.261 81.2256 302.39 81.757 301.742 81.4873Z" fill="#191C13"/>
<path d="M299.36 80.3504C299.526 80.1347 299.769 80.1871 299.893 80.3061C300.007 80.4344 300.047 80.6844 299.816 80.8268C299.562 80.7374 299.497 80.7568 299.45 80.7111C299.412 80.6745 299.439 80.6091 299.36 80.3504Z" fill="#191C13"/>
<path d="M291.221 83.1327C290.505 86.0098 287.576 87.7569 284.678 87.0443C281.78 86.3317 280.019 83.4231 280.735 80.5459C281.451 77.6688 284.38 75.9218 287.278 76.6343C290.177 77.3469 291.938 80.2556 291.221 83.1327Z" fill="#F09F82"/>
<path d="M314.332 88.8342C313.616 91.7113 310.687 93.4583 307.789 92.7458C304.891 92.0332 303.13 89.1245 303.846 86.2474C304.563 83.3703 307.491 81.6232 310.39 82.3358C313.278 83.0392 315.049 85.957 314.332 88.8342Z" fill="#F09F82"/>
<path d="M292.659 68.4882C292.944 68.1503 293.304 67.8577 293.713 67.6388C294.111 67.4014 294.577 67.2745 295.043 67.1847C295.509 67.0949 296.004 67.116 296.473 67.1932C296.942 67.289 297.392 67.4499 297.789 67.7137C298.11 67.9228 298.2 68.3485 297.989 68.6668C297.815 68.929 297.499 69.0353 297.208 68.9465L297.18 68.9376C296.842 68.8308 296.523 68.733 296.185 68.6726C295.857 68.6028 295.52 68.5702 295.174 68.5563C294.828 68.5424 294.483 68.6028 294.129 68.6632C293.775 68.7422 293.421 68.8584 293.059 69.0025L293.05 69.0026C292.882 69.0698 292.685 68.9889 292.617 68.8228C292.559 68.703 292.586 68.5727 292.659 68.4882Z" fill="#191C13"/>
<path d="M312.44 73.3622C312.35 72.9273 312.166 72.5029 311.908 72.1166C311.669 71.7208 311.319 71.3914 310.95 71.0995C310.572 70.8076 310.139 70.5907 309.679 70.4485C309.219 70.3155 308.741 70.2477 308.275 70.2911C307.892 70.3241 307.616 70.6619 307.65 71.0419C307.682 71.357 307.91 71.5952 308.21 71.6561L308.238 71.665C308.585 71.7346 308.922 71.7857 309.241 71.8928C309.57 71.9811 309.88 72.1069 310.191 72.2604C310.501 72.4047 310.775 72.6237 311.068 72.8425C311.342 73.0708 311.599 73.3457 311.855 73.6392L311.865 73.6484C311.979 73.786 312.185 73.8018 312.332 73.6884C312.425 73.6037 312.47 73.4824 312.44 73.3622Z" fill="#191C13"/>
<path d="M295.631 86.2654C295.98 86.4649 296.197 86.6197 296.424 86.7837C296.651 86.9569 296.859 87.1212 297.143 87.3957C296.781 87.5862 296.359 87.4805 296.057 87.2619C295.773 87.0337 295.553 86.6655 295.631 86.2654Z" fill="#191C13"/>
<path d="M310.428 78.447C310.428 78.447 312.366 78.6621 313.106 78.1139C313.106 78.1139 312.486 79.9133 310.845 80.1581L310.428 78.447Z" fill="#191C13"/>
<path d="M304.824 77.3441C305.35 76.9101 306.001 76.66 306.682 76.5488C307.362 76.4282 308.102 76.5018 308.788 76.7709C309.465 77.0587 310.07 77.561 310.397 78.1969C310.761 78.8044 310.883 79.4988 310.855 80.1673C310.455 79.6159 310.139 79.0912 309.722 78.6792C309.332 78.2576 308.879 77.9389 308.381 77.7415C307.366 77.3283 306.151 77.3169 304.824 77.3441Z" fill="#191C13"/>
<path d="M293.394 73.5081C293.394 73.5081 291.854 72.3225 291.71 71.415C291.71 71.415 290.903 73.1334 291.903 74.4469L293.394 73.5081Z" fill="#191C13"/>
<path d="M298.186 76.589C297.248 75.6459 296.376 74.8132 295.352 74.428C294.853 74.2212 294.31 74.1358 293.731 74.1714C293.142 74.1794 292.556 74.3358 291.875 74.4563C292.326 73.9677 292.89 73.5425 293.589 73.3567C294.268 73.1248 295.054 73.1792 295.74 73.4391C296.426 73.7175 297.002 74.1737 297.412 74.7342C297.822 75.2855 298.111 75.9126 298.186 76.589Z" fill="#191C13"/>
<path d="M293.879 80.6747C294.925 81.9319 295.895 83.0603 297.048 83.9634C297.606 84.4384 298.228 84.8013 298.887 85.145C299.546 85.5073 300.269 85.7017 301.049 86.0067C300.257 86.2122 299.38 86.2612 298.563 86.0309C297.738 85.8379 296.947 85.4403 296.285 84.911C295.633 84.3723 295.063 83.7304 294.651 83.0121C294.248 82.2844 293.947 81.4997 293.879 80.6747Z" fill="#191C13"/>
<path d="M274.862 72.3289C274.456 72.0374 274.437 71.3695 274.73 70.9108C275.05 70.4054 275.701 70.1925 276.263 70.2591C276.834 70.2978 277.361 70.6155 277.74 70.9723C278.119 71.3384 278.387 71.7709 278.617 72.1669C279.51 73.8066 279.874 75.7876 279.357 77.5577C278.884 75.7917 278.356 74.2119 277.541 72.7567C277.148 72.0104 276.718 71.3944 276.099 71.1986C275.789 71.1007 275.443 71.1054 275.193 71.2943C274.925 71.4928 274.706 71.8948 274.862 72.3289Z" fill="#191C13"/>
<path d="M276.332 77.0976C275.871 76.8997 275.565 76.4027 275.502 75.8839C275.419 75.356 275.58 74.7878 275.947 74.3374C276.324 73.9054 276.863 73.6476 277.404 73.631C277.927 73.6054 278.482 73.8113 278.759 74.2345C278.264 74.2876 277.92 74.4128 277.614 74.5654C277.317 74.7272 277.067 74.9069 276.902 75.1226C276.718 75.3292 276.582 75.6002 276.474 75.9171C276.357 76.2435 276.288 76.6064 276.332 77.0976Z" fill="#191C13"/>
<path d="M323.278 84.2776C323.773 84.206 324.11 83.6354 324.065 83.0792C324.019 82.4859 323.545 81.9912 323.019 81.7941C322.492 81.5599 321.876 81.5961 321.373 81.7328C320.861 81.8789 320.425 82.1353 320.036 82.3819C318.471 83.4145 317.222 84.9904 316.846 86.805C318.089 85.4612 319.307 84.3126 320.714 83.4028C321.409 82.9294 322.077 82.5863 322.723 82.6982C323.042 82.7589 323.343 82.9219 323.478 83.2077C323.622 83.5027 323.629 83.9574 323.278 84.2776Z" fill="#191C13"/>
<path d="M319.739 87.8054C320.244 87.845 320.745 87.5506 321.047 87.1196C321.368 86.6884 321.491 86.1114 321.38 85.5468C321.25 84.9825 320.898 84.5047 320.427 84.2419C319.974 83.9696 319.394 83.9032 318.948 84.1412C319.364 84.414 319.61 84.6891 319.811 84.9648C319.992 85.25 320.127 85.5173 320.177 85.7858C320.247 86.0539 320.232 86.3511 320.181 86.6859C320.12 87.0393 320.004 87.3935 319.739 87.8054Z" fill="#191C13"/>
<path d="M329.202 76.1522C328.834 73.93 329.241 71.6324 329.078 69.3888C328.766 65.1985 326.28 61.2232 322.641 59.0822C317.694 50.296 307.201 44.6099 297.205 46.2481C292.384 47.0462 287.919 49.2223 283.529 51.3788C280.819 52.7053 277.906 54.2479 276.683 57.002C275.995 58.5796 275.964 60.371 275.38 61.9936C274.291 64.9871 271.516 66.9919 269.116 69.103C266.715 71.2141 264.391 74.0387 264.772 77.2072C265.028 79.4495 266.597 81.3307 267.124 83.5229C267.76 86.1962 266.761 88.938 266.201 91.6274C265.631 94.3077 265.658 97.4996 267.74 99.3182C270.343 97.6591 273.925 98.4646 276.674 99.8844C278.934 101.051 280.938 102.657 283.17 103.861C283.229 103.415 283.261 102.978 283.292 102.56L283.846 92.2152C281.459 89.315 279.912 85.6889 279.108 81.7001C272.577 80.5169 271.92 69.1115 274.814 68.2187C276.554 67.6756 277.96 68.6032 278.851 69.482C278.859 69.4355 278.868 69.3982 278.868 69.3519C279.466 71.3668 280.363 73.3035 281.546 75.0228C281.47 74.2351 282.472 73.7483 283.268 73.8582C284.064 73.9681 284.781 74.4131 285.585 74.4487C287.129 74.5299 288.305 73.1128 289.043 71.7665C289.771 70.4111 290.45 68.8615 291.852 68.2115C293.097 67.6287 294.559 67.943 295.926 68.0916C300.588 68.6133 305.538 67.071 309.027 63.9616C308.849 65.8664 308.745 67.7887 309.099 69.6677C309.453 71.5468 310.32 73.3818 311.804 74.5959C312.684 75.3172 313.794 75.8404 314.35 76.8352C314.955 77.922 314.721 79.2429 314.692 80.4775C314.663 81.7122 315.02 83.1828 316.176 83.622C316.179 83.8817 316.25 84.2241 316.253 84.4839C317.479 82.5836 319.167 81.0296 321.104 79.8621C321.095 79.8715 321.095 79.89 321.095 79.8993C322.296 79.5212 323.976 79.3593 325.256 80.6598C327.38 82.7748 321.452 92.5615 315.106 90.5777C312.809 93.3649 310.14 95.6373 307.161 97.1252L307.588 102.223C307.644 102.881 307.738 103.576 307.87 104.289C315.884 103.921 324.523 105.428 332.267 107.078C332.793 105.298 331.655 103.467 330.429 102.073C329.203 100.66 327.772 99.2227 327.568 97.3695C327.201 93.9409 331.141 91.5956 332.14 88.2877C333.345 84.2347 329.915 80.3278 329.202 76.1522Z" fill="#11133D"/>
<g opacity="0.5">
<g opacity="0.5">
<path opacity="0.5" d="M313.545 60.9961C312.718 62.659 313.251 64.6192 314.326 65.9781C315.393 67.4021 316.894 68.4212 318.321 69.5619C319.776 70.6651 321.097 72.1506 321.794 73.9137C322.52 75.6578 322.735 77.6129 322.388 79.4829L321.578 79.0948C322.737 77.7336 323.375 75.9525 323.452 74.1512C323.539 72.3404 323.064 70.5187 322.098 68.982C321.142 67.4359 319.573 66.2043 318.642 64.4722C317.739 62.7583 317.356 60.7776 317.637 58.8993C317.571 60.7933 318.046 62.6707 319.04 64.2441C319.979 65.8369 321.565 66.9569 322.7 68.5841C323.845 70.2112 324.35 72.2181 324.294 74.1862C324.238 76.1543 323.584 78.149 322.269 79.6886C322.103 79.8857 321.814 79.9082 321.615 79.7439C321.483 79.6343 321.424 79.4588 321.46 79.3005C321.8 77.6163 321.635 75.8275 320.995 74.2214C320.383 72.5779 319.215 71.2573 317.852 70.0879C316.508 68.9089 314.987 67.788 313.947 66.2245C313.431 65.4519 313.072 64.5566 312.975 63.63C312.878 62.7218 313.042 61.7545 313.545 60.9961Z" fill="#3030CE"/>
<path opacity="0.5" d="M326.403 83.2519C327.14 85.0979 326.646 87.2111 325.868 88.9848C325.052 90.7868 323.897 92.38 323.118 94.1165C322.709 94.9758 322.404 95.8522 322.267 96.7635C322.14 97.6654 322.172 98.6022 322.353 99.4999C322.715 101.314 323.636 103.009 324.788 104.497C324.941 104.699 324.907 104.978 324.704 105.129C324.63 105.186 324.546 105.215 324.462 105.225C322.838 105.358 321.204 104.851 319.893 103.96C318.562 103.077 317.526 101.829 316.87 100.409C316.224 98.9887 315.931 97.4336 315.974 95.9111C316.018 94.3886 316.324 92.8812 316.884 91.4817C316.502 92.9345 316.299 94.4313 316.386 95.9056C316.463 97.38 316.792 98.8418 317.464 100.123C318.137 101.403 319.152 102.494 320.35 103.267C321.557 104.03 322.984 104.438 324.384 104.317L324.067 105.054C322.811 103.493 321.832 101.669 321.449 99.6699C321.248 98.6703 321.233 97.6312 321.406 96.6266C321.587 95.6127 321.948 94.6613 322.403 93.7735C323.322 92.0073 324.543 90.4781 325.416 88.7774C326.29 87.0953 326.907 85.1567 326.403 83.2519Z" fill="#3030CE"/>
<path opacity="0.5" d="M309.756 58.69C308.051 61.033 305.523 62.7189 302.78 63.7118C300.009 64.6957 297.022 64.9495 294.103 64.7476C292.643 64.6559 291.181 64.3787 289.786 64.2026C288.391 64.0358 286.961 64.018 285.783 64.6557C284.595 65.2656 283.704 66.382 282.795 67.4985C281.895 68.6057 280.912 69.8253 279.454 70.5039C279.222 70.6091 278.959 70.5106 278.853 70.28C278.843 70.2523 278.824 70.2154 278.823 70.1876L278.823 70.1783C278.483 68.6332 278.18 67.0226 278.213 65.3796C278.227 63.7461 278.624 62.0704 279.426 60.6305C281.011 57.723 283.814 55.6344 286.873 54.563C289.952 53.4821 293.21 53.2433 296.398 53.2374C297.996 53.2437 299.586 53.3521 301.114 52.9789C302.604 52.6154 304.106 51.7136 304.692 50.2116C304.2 51.7587 302.709 52.7903 301.173 53.2286C299.61 53.6766 297.973 53.643 296.395 53.7107C293.237 53.7997 290.045 54.1398 287.126 55.2556C284.235 56.3525 281.618 58.3273 280.189 61.0285C279.469 62.3652 279.126 63.8639 279.12 65.3859C279.104 66.908 279.397 68.4352 279.718 69.9807L279.078 69.6645C280.285 69.1285 281.214 68.0395 282.123 66.9415C283.033 65.8528 283.988 64.6335 285.408 63.9091C286.827 63.1661 288.454 63.2277 289.896 63.4124C291.367 63.6152 292.745 63.94 294.177 64.0599C297.013 64.3464 299.926 64.1586 302.653 63.3052C305.361 62.4705 307.9 60.9051 309.756 58.69Z" fill="#3030CE"/>
<path opacity="0.5" d="M272.878 73.4416C272.321 74.3493 271.726 75.2389 271.244 76.1827C270.752 77.108 270.336 78.0787 270.154 79.0834C269.981 80.088 270.014 81.0805 270.327 82.0506C270.621 83.0211 271.083 83.9706 271.509 84.9671C272.397 86.9781 272.691 89.2756 272.339 91.4426C271.996 93.6094 271.081 95.6819 269.636 97.2789L269.589 97.2239L270.007 97.0419L269.627 97.2883C269.608 97.2979 269.59 97.2981 269.571 97.2798C269.561 97.2707 269.561 97.2521 269.57 97.2427L269.57 97.2334C270.722 95.4454 271.423 93.413 271.599 91.3505C271.785 89.2878 271.475 87.2133 270.644 85.3221C270.257 84.353 269.766 83.3759 269.48 82.2848C269.184 81.203 269.158 80.0063 269.46 78.935C270.055 76.7462 271.452 75.0292 272.878 73.4416Z" fill="#3030CE"/>
<path opacity="0.5" d="M276.615 80.6108C275.73 82.1725 275.999 83.9784 276.582 85.5203C277.202 87.0802 278.241 88.4768 279.113 90.0333C280.004 91.5896 280.553 93.3917 280.635 95.1816C280.735 96.9806 280.378 98.7857 279.605 100.364C280.445 96.9567 280.002 93.4084 278.288 90.4806C277.472 88.979 276.432 87.5082 275.884 85.7524C275.619 84.8837 275.494 83.9667 275.584 83.056C275.702 82.1636 276.007 81.2593 276.615 80.6108Z" fill="#3030CE"/>
</g>
</g>
<path d="M344.159 155.47C344.159 155.47 350.116 164.251 345.416 167.034C340.717 169.816 337.099 158.534 337.099 158.534L340.832 153.556L344.159 155.47Z" fill="#EB7171"/>
<path d="M313.79 135.575C314.281 133.286 316.362 131.708 318.402 130.548C319.978 129.655 321.677 128.834 323.005 127.637C323.698 127.015 324.735 127.038 325.371 127.726C329.13 131.767 330.828 137.507 329.999 142.984C325.856 138.864 318.255 139.347 313.79 135.575Z" fill="#3B1B1B"/>
<path d="M331.933 176.477C331.933 176.477 332.838 187.564 331.852 194.435C331.494 196.908 332.101 199.498 333.763 201.378C334.21 201.883 334.73 202.34 335.333 202.693C336.86 203.591 337.403 205.607 336.187 206.895C335.184 207.966 333.374 208.891 330.16 208.971C322.181 209.181 319.916 195.737 319.656 191.927C319.406 188.107 328.222 172.481 331.933 176.477Z" fill="#3B1B1B"/>
<path d="M261.374 196.759C261.388 196.444 261.449 196.155 261.482 195.839C252.098 189.85 250.721 177.174 250.735 170.195C250.736 169.602 251.585 169.525 251.705 170.108C253.881 180.472 259.386 185.762 263.386 188.371C265.226 184.3 268.06 181.181 270.944 178.924C273.634 176.818 276.353 175.455 278.335 174.788C281.953 173.551 287.452 173.143 292.249 172.642C296.347 172.215 299.938 171.722 301.483 170.578C301.483 170.578 305.251 164.133 300.742 156.566C300.742 156.566 293.578 147.68 296.031 142.7C298.456 137.712 315.43 131.201 323.911 138.037C331.314 143.997 337.656 148.338 342.308 149.481C343.922 149.877 345.275 151.047 345.615 152.657C345.806 153.591 345.737 154.641 345.021 155.579C343.103 158.092 341.522 154.689 341.522 154.689C341.522 154.689 340.839 163.876 330.446 166.475C330.446 166.475 334.063 179.056 330.632 187.547C327.624 194.928 320.756 200.932 319.037 202.356C319.356 203.057 319.758 203.72 320.28 204.307C320.727 204.811 321.247 205.268 321.85 205.622C323.377 206.52 323.92 208.536 322.704 209.824C321.701 210.895 319.891 211.82 316.677 211.9C313.417 211.991 311.123 209.785 309.512 206.893C305.117 208.688 299.453 210.676 293.285 212.086C293.428 212.232 293.57 212.37 293.712 212.544C295.31 214.444 294.22 217.354 291.779 217.878C286.467 219.017 273.891 220.625 266.868 212.442C264.843 210.085 263.556 207.606 262.745 205.148C261.77 202.934 261.189 200.177 261.374 196.759Z" fill="#5E2A2A"/>
<path d="M294.277 164.068C293.301 164.471 292.371 163.481 292.788 162.52C294.037 159.654 294.101 156.257 292.817 153.388C292.016 151.589 290.76 150.028 289.949 148.239C289.168 146.496 288.832 144.552 288.991 142.647C289.095 141.365 289.607 139.91 290.835 139.523C291.393 139.348 291.993 139.442 292.572 139.434C294.245 139.421 295.814 138.63 297.193 137.692C298.572 136.746 299.837 135.634 301.293 134.825C302.758 134.017 304.499 133.538 306.113 133.999C307.718 134.46 309.132 135.332 309.371 137.686C309.373 141.119 305.166 139.682 304.472 142.846C303.954 145.183 307.728 151.646 306.42 153.64C303.748 157.695 299.276 161.996 294.277 164.068Z" fill="#3B1B1B"/>
<path d="M270.944 178.924C272.83 181.386 277.555 182.454 282.624 181.346C288.625 180.04 292.897 176.169 292.249 172.633C287.452 173.134 281.953 173.542 278.334 174.778C276.353 175.464 273.634 176.828 270.944 178.924Z" fill="#F09C7A"/>
<path d="M341.093 148.106C340.075 148.175 338.611 148.408 336.872 149.063C335.989 149.399 335.63 150.453 336.127 151.254C336.826 152.395 338.09 153.844 340.192 154.447C340.942 154.659 341.74 154.249 342.001 153.513C342.325 152.608 342.688 151.23 342.721 149.606C342.737 148.733 341.98 148.047 341.093 148.106Z" fill="black"/>
<path d="M315.341 153.956C318.816 157.111 323.276 157.895 325.292 155.706C327.308 153.516 326.125 149.18 322.65 146.016C319.175 142.861 314.715 142.077 312.699 144.266C310.683 146.465 311.866 150.801 315.341 153.956Z" fill="#F09C7A"/>
<path d="M322.966 149.213C322.211 149.353 321.596 149.473 321.009 149.648C320.432 149.813 319.902 150.006 319.382 150.245C318.862 150.475 318.361 150.742 317.842 151.055C317.314 151.368 316.796 151.728 316.157 152.154C316.116 150.614 317.237 149.235 318.649 148.613C319.364 148.297 320.157 148.165 320.934 148.257C321.701 148.339 322.453 148.645 322.966 149.213Z" fill="black"/>
<path d="M327.203 147.384C327.084 146.893 327.152 146.428 327.296 146C327.439 145.571 327.667 145.169 327.971 144.84C328.265 144.502 328.635 144.228 329.043 144.027C329.452 143.827 329.908 143.7 330.414 143.758C330.196 144.207 329.957 144.544 329.728 144.862C329.49 145.181 329.27 145.472 329.012 145.754C328.763 146.036 328.505 146.299 328.21 146.572C327.934 146.835 327.62 147.109 327.203 147.384Z" fill="black"/>
<path d="M312.954 145.757C312.8 146.075 312.589 146.393 312.283 146.573C311.977 146.754 311.538 146.769 311.282 146.522C311.074 146.33 311.014 146.024 311.019 145.737C311.017 144.939 311.38 144.145 311.989 143.617C312.395 143.268 313.475 142.929 313.571 143.754C313.593 143.994 313.402 144.405 313.34 144.638C313.233 145.029 313.127 145.402 312.954 145.757Z" fill="#D98868"/>
<path d="M321.412 140.418C321.057 140.47 320.674 140.465 320.354 140.312C320.034 140.159 319.777 139.8 319.846 139.456C319.899 139.177 320.12 138.96 320.361 138.809C321.027 138.363 321.895 138.231 322.674 138.453C323.19 138.603 324.069 139.306 323.432 139.834C323.247 139.985 322.79 140.047 322.557 140.134C322.185 140.259 321.803 140.367 321.412 140.418Z" fill="#D98868"/>
<path d="M293.34 211.983C292.57 211.715 291.8 211.484 291.013 211.319C290.225 211.162 289.429 211.062 288.634 211.007L288.232 210.985L288.414 210.611C289.231 208.921 289.71 207.086 289.824 205.247C289.957 203.408 289.594 201.557 288.897 199.849C288.19 198.142 287.13 196.56 285.776 195.289C284.412 194.054 282.641 193.085 280.69 193.232C281.631 192.997 282.651 193.094 283.59 193.397C284.538 193.691 285.396 194.217 286.18 194.829C287.731 196.06 288.932 197.705 289.724 199.513C290.506 201.322 290.872 203.34 290.703 205.319C290.535 207.288 289.898 209.199 288.904 210.883L288.683 210.478C289.507 210.578 290.313 210.762 291.093 211.021C291.872 211.27 292.633 211.584 293.34 211.983Z" fill="black"/>
<path d="M294.42 215.031C293.93 214.694 293.637 214.522 293.298 214.331C292.968 214.132 292.676 213.959 292.14 213.697C292.333 213.454 292.63 213.348 292.92 213.334C293.218 213.312 293.509 213.401 293.764 213.546C294.009 213.7 294.227 213.911 294.352 214.178C294.487 214.436 294.538 214.751 294.42 215.031Z" fill="black"/>
<path d="M292.559 217.552C292.187 217.038 291.931 216.763 291.627 216.451C291.324 216.14 291.058 215.865 290.557 215.473C290.835 215.293 291.171 215.27 291.481 215.349C291.79 215.419 292.073 215.601 292.291 215.821C292.5 216.059 292.672 216.335 292.723 216.65C292.784 216.955 292.751 217.29 292.559 217.552Z" fill="black"/>
<path d="M319.074 202.402C318.363 201.029 317.94 199.504 317.722 197.975C317.485 196.438 317.426 194.899 317.376 193.368C317.314 190.307 317.356 187.309 316.677 184.302C317.361 185.685 317.765 187.21 317.974 188.748C318.202 190.285 318.251 191.825 318.301 193.346C318.363 196.408 318.34 199.415 319.074 202.402Z" fill="black"/>
<path d="M309.336 207.034C307.561 204.414 306.442 201.366 305.875 198.247C305.326 195.127 305.317 191.879 306.068 188.816C306.047 191.962 306.222 195.05 306.788 198.086C307.308 201.132 308.21 204.089 309.336 207.034Z" fill="black"/>
<path d="M313.755 178.615C313.077 178.894 312.489 178.976 311.892 179.067C311.285 179.131 310.707 179.195 309.976 179.093C310.435 178.512 311.105 178.252 311.776 178.16C312.458 178.085 313.169 178.178 313.755 178.615Z" fill="black"/>
<path d="M330.306 166.514C328.247 167.006 326.107 167.007 324.018 166.719C321.93 166.404 319.874 165.801 318.046 164.74C320.126 165.111 322.123 165.529 324.155 165.808C326.178 166.115 328.209 166.282 330.306 166.514Z" fill="black"/>
<path d="M314.527 163.098C313.31 163.003 312.19 162.406 311.281 161.611C310.391 160.797 309.675 159.758 309.453 158.564C310.324 159.406 311.065 160.203 311.898 160.935C312.712 161.675 313.59 162.332 314.527 163.098Z" fill="black"/>
<path d="M332.213 181.048C332.287 184.314 331.418 187.592 329.926 190.517C328.416 193.442 326.257 196.069 323.554 197.915C325.773 195.519 327.662 192.942 329.107 190.101C330.563 187.27 331.566 184.231 332.213 181.048Z" fill="black"/>
<path d="M319.188 207.672C319.857 208.117 320.14 208.958 320.114 209.738C320.069 210.509 319.707 211.321 318.992 211.702C319.084 210.921 319.169 210.326 319.198 209.694C319.226 209.054 319.199 208.46 319.188 207.672Z" fill="black"/>
<path d="M321.627 207.008C322.232 206.823 322.873 207.26 323.088 207.86C323.302 208.461 323.079 209.206 322.484 209.437C322.428 208.834 322.33 208.502 322.213 208.169C322.096 207.827 321.961 207.514 321.627 207.008Z" fill="black"/>
<path d="M333.374 204.919C334.032 205.161 334.387 205.815 334.471 206.454C334.545 207.093 334.341 207.82 333.757 208.199C333.654 207.532 333.619 207.059 333.556 206.559C333.502 206.059 333.43 205.596 333.374 204.919Z" fill="black"/>
<path d="M335.617 204.35C336.159 204.343 336.529 204.728 336.694 205.134C336.849 205.559 336.829 206.079 336.422 206.437C336.089 206.024 335.955 205.766 335.829 205.461C335.731 205.156 335.652 204.87 335.617 204.35Z" fill="black"/>
<path d="M306.96 137.625C306.201 138.832 305.629 140 305.264 141.267C304.889 142.525 304.748 143.817 304.731 145.246C304.022 143.984 303.981 142.407 304.381 141.01C304.801 139.622 305.689 138.32 306.96 137.625Z" fill="black"/>
<path d="M329.814 142.43C328.451 141.91 327.206 141.11 326.063 140.244C324.901 139.388 323.813 138.465 322.644 137.701C320.35 136.118 317.6 135.301 314.711 135.219C316.127 134.903 317.631 134.892 319.085 135.207C320.537 135.493 321.93 136.124 323.156 136.943C325.61 138.608 327.445 140.782 329.814 142.43Z" fill="black"/>
<path d="M338.184 161.786C336.225 162.722 333.986 163.003 331.805 162.81C329.634 162.598 327.484 161.903 325.736 160.618C327.801 161.24 329.818 161.714 331.895 161.899C333.973 162.103 336.047 162.019 338.184 161.786Z" fill="black"/>
<path d="M326.622 159.214C326.417 159.885 326.209 160.361 326.01 160.874C325.803 161.387 325.632 161.872 325.314 162.508C324.885 161.919 324.912 161.167 325.146 160.542C325.417 159.917 325.914 159.354 326.622 159.214Z" fill="black"/>
<path d="M341.572 154.901C342.494 156.002 343.083 157.312 343.513 158.652C343.915 160.001 344.159 161.409 344.011 162.84C343.432 161.53 343.049 160.227 342.629 158.924C342.245 157.602 341.835 156.308 341.572 154.901Z" fill="black"/>
<path d="M360.008 213.923C359.933 213.933 359.868 213.953 359.803 213.972C356.273 214.836 352.62 215.609 348.863 216.319C317.421 222.228 280.18 222.61 265.418 219.023C264.839 219.04 264.259 219.01 263.736 219.036C261.765 219.155 259.786 219.321 257.817 219.552C255.541 219.815 253.265 220.152 251.018 220.563C248.063 221.104 244.941 221.758 242.18 220.821C241.504 220.589 240.767 220.033 241.019 219.398C241.173 219.016 241.628 218.805 242.056 218.642C244.045 217.863 246.247 217.657 248.237 216.879C245.368 216.908 242.304 216.365 239.444 216.385C238.967 216.391 238.463 216.398 238.039 216.209C237.607 216.039 237.265 215.616 237.352 215.179C237.474 214.574 238.274 214.322 238.936 214.193C241.909 213.614 244.873 213.036 247.847 212.458C244.195 212.655 240.347 212.837 237.147 211.312C236.555 211.032 235.931 210.577 235.988 209.964C236.038 209.508 236.453 209.131 236.918 208.967C237.383 208.803 237.897 208.806 238.392 208.808C241.645 208.82 244.889 208.841 248.142 208.853C245.902 208.447 243.653 208.051 241.423 207.645C240.87 207.55 240.298 207.446 239.827 207.165C239.365 206.893 239.003 206.406 239.071 205.895C239.138 205.374 239.637 204.959 240.186 204.766C240.725 204.564 241.314 204.574 241.884 204.585C244.829 204.61 247.756 204.738 250.684 204.94C251.367 204.995 252.218 204.975 252.574 204.413C253.013 203.739 252.311 202.997 251.715 202.476C251.194 202.01 250.701 201.487 250.468 200.85C250.234 200.204 250.317 199.432 250.842 198.934C251.433 198.378 252.413 198.318 253.192 198.568C253.972 198.817 254.605 199.328 255.257 199.783C257.495 201.396 260.091 202.604 262.859 203.328C263.262 203.424 263.675 203.53 264.087 203.627C273.859 201.936 302.47 196.743 333.379 188.828C332.862 187.981 332.821 186.432 332.927 184.667C344.685 185.956 363.874 180.704 369.049 179.196C370.404 182.463 371.722 185.758 373.02 189.026C377.198 199.548 371.027 211.232 360.008 213.923Z" fill="#F0B6A1"/>
<path d="M366.273 204.317C366.125 203.753 366.24 203.315 366.412 202.896C366.612 202.494 366.878 202.119 367.407 201.861C367.555 202.425 367.44 202.863 367.268 203.283C367.059 203.694 366.802 204.06 366.273 204.317Z" fill="#F09F82"/>
<path d="M342.791 186.269C342.44 186.571 341.966 186.725 341.51 186.871C338.784 187.743 336.048 189.218 333.321 190.09C335.463 190.2 337.606 189.717 339.748 189.836C340.197 189.858 340.693 189.907 340.969 190.219C341.415 190.742 340.884 191.501 340.311 191.926C337.989 193.683 334.817 194.032 331.85 194.444C329.574 194.762 327.308 195.136 325.072 195.602C323.124 196.009 321.205 196.462 319.287 196.97C318.57 197.156 317.724 197.52 316.96 197.633C296.645 208.504 257.403 216.755 257.403 216.755C257.403 216.755 225.379 230.401 220.436 219.898C217.901 214.495 220.19 202.548 223.887 189.748C227.961 190.343 249.488 193.105 263.239 187.305L263.055 188.189L315.118 181.817C317.526 180.262 319.602 178.304 321.224 176.074C321.683 175.436 322.122 174.762 322.788 174.28C323.445 173.807 324.395 173.553 325.138 173.896C325.796 174.202 326.124 174.922 326.106 175.599C326.088 176.277 325.77 176.922 325.423 177.53C325.031 178.212 324.605 179.137 325.229 179.639C325.749 180.059 326.549 179.797 327.199 179.538C329.903 178.434 332.655 177.404 335.427 176.457C335.967 176.274 336.534 176.08 337.105 176.101C337.684 176.102 338.277 176.363 338.508 176.824C338.738 177.294 338.55 177.872 338.201 178.267C337.842 178.67 337.341 178.956 336.85 179.213C334.856 180.298 332.843 181.373 330.848 182.458C333.937 181.433 337.007 180.399 340.086 179.373C340.56 179.218 341.053 179.054 341.54 179.066C342.044 179.078 342.562 179.303 342.745 179.718C342.996 180.29 342.547 180.918 342.077 181.369C339.532 183.798 335.817 184.841 332.288 185.789C335.283 185.414 338.297 185.04 341.292 184.665C341.964 184.582 342.805 184.57 343.121 185.104C343.341 185.463 343.142 185.967 342.791 186.269Z" fill="#F0B6A1"/>
<path d="M263.108 188.078C261.603 188.72 260.108 189.362 258.602 189.967C257.106 190.59 255.6 191.186 254.114 191.818C252.618 192.442 251.132 193.074 249.674 193.762C248.216 194.459 246.759 195.147 245.35 195.983C246.54 194.862 247.91 193.934 249.338 193.126C250.756 192.3 252.251 191.621 253.756 190.979C256.776 189.713 259.893 188.697 263.108 188.078Z" fill="#F09F82"/>
<path d="M244.886 221.156L263.218 215.489C266.28 214.557 269.332 213.625 272.405 212.757C275.476 211.862 278.529 210.939 281.591 210.007C287.705 208.161 293.809 206.251 299.846 204.193C302.86 203.15 305.873 202.098 308.838 200.926C311.794 199.772 314.806 198.609 317.437 196.958L317.455 196.949C317.501 196.921 317.557 196.901 317.604 196.891L330.029 194.515C331.054 194.306 332.118 194.143 333.114 193.898C334.13 193.662 335.144 193.388 336.14 193.087C337.136 192.777 338.122 192.438 339.05 191.999C339.505 191.779 339.96 191.532 340.329 191.23C340.708 190.937 340.965 190.563 340.867 190.258L341.188 190.495L333.476 190.422C333.327 190.424 333.203 190.296 333.201 190.148C333.199 190.027 333.282 189.924 333.384 189.885C335.152 189.286 336.909 188.669 338.648 188.005C339.522 187.678 340.386 187.341 341.241 186.968C341.668 186.786 342.086 186.594 342.494 186.375C342.698 186.271 342.893 186.157 343.069 186.034C343.152 185.967 343.235 185.901 343.281 185.836C343.29 185.836 343.307 185.715 343.26 185.66C343.106 185.356 342.59 185.214 342.168 185.118C341.718 185.04 341.259 184.981 340.801 184.969C339.875 184.935 338.941 184.966 338.017 185.062C336.16 185.227 334.313 185.521 332.477 185.87C334.303 185.465 336.139 185.088 337.996 184.886C338.929 184.772 339.863 184.713 340.807 184.728C341.275 184.731 341.752 184.771 342.22 184.848C342.455 184.9 342.689 184.953 342.924 185.043C343.15 185.142 343.404 185.259 343.548 185.535C343.595 185.6 343.606 185.674 343.607 185.757C343.627 185.831 343.6 185.924 343.555 186.018C343.463 186.149 343.361 186.224 343.269 186.309C343.075 186.46 342.862 186.584 342.658 186.698C342.24 186.926 341.823 187.136 341.396 187.337C340.541 187.729 339.677 188.093 338.813 188.448C337.075 189.14 335.327 189.794 333.56 190.421L333.468 189.884L341.179 189.836C341.328 189.834 341.451 189.925 341.5 190.064L341.5 190.073C341.617 190.424 341.529 190.824 341.365 191.096C341.201 191.376 340.989 191.592 340.767 191.781C340.324 192.149 339.841 192.415 339.359 192.663C338.384 193.14 337.38 193.506 336.366 193.836C334.347 194.503 332.241 194.94 330.181 195.33L317.757 197.771L317.924 197.704C315.145 199.467 312.152 200.621 309.168 201.812C306.185 202.984 303.152 204.018 300.12 205.052C294.055 207.092 287.931 208.966 281.798 210.784C275.674 212.602 269.453 214.189 263.328 215.989L244.886 221.156Z" fill="#F09F82"/>
<path d="M226.3 210.271C226.652 210.711 226.851 210.913 227.07 211.17C227.288 211.427 227.441 211.666 227.812 212.088C227.571 212.258 227.282 212.262 227.019 212.191C226.756 212.12 226.53 211.957 226.349 211.755C226.187 211.544 226.062 211.295 226.049 211.026C226.027 210.757 226.088 210.468 226.3 210.271Z" fill="#F09F82"/>
</svg>
