<svg width="171" height="40" viewBox="0 0 171 40" fill="none" xmlns="http://www.w3.org/2000/svg">
<path d="M18.734 8.478C20.7513 9.67933 21.76 11.0393 21.76 12.558C21.76 13.102 21.6353 13.68 21.386 14.292C21.0233 15.1987 20.1053 16.2753 18.632 17.522C17.1587 18.746 15.7873 19.63 14.518 20.174C14.0193 20.4007 13.4413 20.6273 12.784 20.854C12.1267 21.0807 11.4807 21.296 10.846 21.5C10.3927 21.6133 9.93933 21.6587 9.486 21.636L9.554 21.704C10.0753 22.86 11.084 24.2653 12.58 25.92C13.2827 26.736 14.246 27.6767 15.47 28.742C16.694 29.7847 17.748 30.5213 18.632 30.952C18.7227 31.0427 18.768 31.1787 18.768 31.36C18.768 31.564 18.7 31.7793 18.564 32.006C18.4507 32.2553 18.3487 32.3913 18.258 32.414C18.2127 32.4367 18.156 32.4593 18.088 32.482C18.02 32.5047 17.9407 32.516 17.85 32.516C17.5327 32.516 17.0793 32.3233 16.49 31.938C15.4247 31.3033 14.3933 30.5667 13.396 29.728C12.3987 28.8667 11.3107 27.756 10.132 26.396C9.61067 25.784 9.19133 25.2513 8.874 24.798C8.57933 24.322 8.262 23.6873 7.922 22.894L7.854 23.098C7.174 25.41 6.14267 28.3907 4.76 32.04C4.64667 32.312 4.47667 32.448 4.25 32.448C4.00067 32.448 3.69467 32.3007 3.332 32.006C3.28667 31.9607 3.20733 31.8813 3.094 31.768C2.98067 31.6547 2.90133 31.5527 2.856 31.462C2.81067 31.394 2.788 31.3147 2.788 31.224C2.788 31.02 2.96933 30.51 3.332 29.694L3.74 28.776C3.876 27.96 4.20467 27.0193 4.726 25.954C4.88467 25.41 5.80267 23.098 7.48 19.018L8.092 17.522L8.466 16.638C9.078 15.0967 9.90533 13.1813 10.948 10.892C11.0613 10.552 11.118 10.3367 11.118 10.246C11.118 9.95133 10.9253 9.804 10.54 9.804C10.2907 9.50933 10.166 9.23733 10.166 8.988C10.166 8.73867 10.2793 8.56867 10.506 8.478L12.274 7.764C13.0673 7.58266 13.838 7.492 14.586 7.492C16.1047 7.492 17.4873 7.82067 18.734 8.478ZM13.43 18.61C15.062 17.862 16.524 16.9327 17.816 15.822C19.108 14.6887 19.72 13.5893 19.652 12.524C19.652 12.0933 19.4253 11.64 18.972 11.164C18.5187 10.688 18.054 10.382 17.578 10.246C16.1953 9.92867 15.266 9.77 14.79 9.77C14.382 9.77 14.0533 9.86067 13.804 10.042C13.5773 10.2007 13.4187 10.4613 13.328 10.824C13.328 10.892 13.1807 11.2207 12.886 11.81C12.2287 13.238 11.8093 14.2127 11.628 14.734L10.846 16.332C10.1207 17.7827 9.67867 18.6893 9.52 19.052C9.384 19.4147 9.37267 19.6527 9.486 19.766C10.4153 19.698 11.73 19.3127 13.43 18.61ZM27.3137 28.81C26.747 29.3087 26.067 29.558 25.2737 29.558C24.707 29.558 24.163 29.422 23.6417 29.15C23.143 28.878 22.7237 28.504 22.3837 28.028C22.089 27.6653 21.8737 27.2573 21.7377 26.804C21.6017 26.3507 21.5337 25.7953 21.5337 25.138C21.5337 24.9113 21.5564 24.458 21.6017 23.778C21.6697 22.9393 21.9417 22.0667 22.4177 21.16C22.9164 20.2533 23.5284 19.4487 24.2537 18.746C24.979 18.0207 25.693 17.522 26.3957 17.25C26.7584 17.0233 27.087 16.91 27.3817 16.91C27.5404 16.91 27.699 16.9213 27.8577 16.944C28.0164 16.9667 28.1864 16.9893 28.3677 17.012C28.8664 17.08 29.2404 17.182 29.4897 17.318C29.7617 17.4313 29.9884 17.6127 30.1697 17.862C30.7364 18.4287 31.0197 19.086 31.0197 19.834C30.929 20.378 30.5777 21.0013 29.9657 21.704C29.3537 22.4067 28.617 22.9733 27.7557 23.404C27.3477 23.54 26.883 23.608 26.3617 23.608C25.659 23.608 25.0924 23.4607 24.6617 23.166C24.4577 23.098 24.299 23.064 24.1857 23.064C23.9817 23.064 23.823 23.2 23.7097 23.472C23.619 23.744 23.5284 24.2427 23.4377 24.968C23.415 25.1267 23.4037 25.3533 23.4037 25.648C23.4037 26.804 23.789 27.4387 24.5597 27.552C25.081 27.6653 25.455 27.722 25.6817 27.722C25.9537 27.722 26.2597 27.6313 26.5997 27.45L27.2457 27.076C27.3817 27.008 27.5064 26.9173 27.6197 26.804C27.733 26.6907 27.835 26.5887 27.9257 26.498C27.971 26.4527 28.039 26.3847 28.1297 26.294C28.2204 26.1807 28.2997 26.1127 28.3677 26.09C28.4584 26.0447 28.5377 26.022 28.6057 26.022C28.6964 26.022 28.7984 26.0787 28.9117 26.192C29.025 26.2827 29.1157 26.3507 29.1837 26.396C29.3877 26.396 29.433 26.5433 29.3197 26.838C29.2064 27.11 28.957 27.4387 28.5717 27.824C28.209 28.1867 27.7897 28.5153 27.3137 28.81ZM27.2797 21.602C27.665 21.4433 28.0504 21.16 28.4357 20.752C28.8437 20.344 29.0477 20.004 29.0477 19.732C29.0477 19.46 28.9457 19.2333 28.7417 19.052C28.5377 18.8707 28.2544 18.78 27.8917 18.78C27.6197 18.78 27.4157 18.8027 27.2797 18.848C26.9624 18.9387 26.5884 19.188 26.1577 19.596C25.727 19.9813 25.353 20.378 25.0357 20.786C24.7184 21.194 24.5937 21.432 24.6617 21.5C24.775 21.704 25.217 21.806 25.9877 21.806C26.509 21.806 26.9397 21.738 27.2797 21.602ZM36.0583 15.108C35.8997 14.9493 35.7637 14.6773 35.6503 14.292C35.537 13.9067 35.537 13.714 35.6503 13.714C35.8317 13.6913 36.0357 13.4987 36.2623 13.136C36.5117 12.7507 36.625 12.4333 36.6023 12.184C36.6023 12.0933 36.6363 12.014 36.7043 11.946C36.7723 11.8553 36.8517 11.7987 36.9423 11.776C37.1237 11.6627 37.2823 11.606 37.4183 11.606C37.8037 11.606 38.155 11.878 38.4723 12.422C38.6083 12.7167 38.6763 12.9773 38.6763 13.204C38.6763 13.408 38.6197 13.6233 38.5063 13.85C38.393 14.054 38.189 14.326 37.8943 14.666C37.509 15.1873 37.1463 15.448 36.8063 15.448C36.5797 15.448 36.3303 15.3347 36.0583 15.108ZM32.7603 28.912C32.443 28.5947 32.2843 28.1413 32.2843 27.552C32.2843 27.2347 32.341 26.9627 32.4543 26.736C32.4543 26.6227 32.477 26.4867 32.5223 26.328C32.5677 26.1693 32.5903 26.0673 32.5903 26.022C32.5677 25.886 32.6583 25.512 32.8623 24.9C33.2703 23.9933 33.8143 22.3953 34.4943 20.106C34.4943 19.9927 34.5397 19.902 34.6303 19.834C34.721 19.7433 34.857 19.6867 35.0383 19.664C35.2197 19.6187 35.3443 19.596 35.4123 19.596C35.5483 19.596 35.6617 19.6527 35.7523 19.766C35.8657 19.8567 36.013 20.038 36.1943 20.31C36.3303 20.446 36.3983 20.65 36.3983 20.922C36.3983 21.3527 36.251 21.874 35.9563 22.486C35.6617 23.1433 35.469 23.71 35.3783 24.186C35.1063 24.798 34.891 25.3647 34.7323 25.886C34.687 26.022 34.619 26.294 34.5283 26.702C34.4377 27.11 34.313 27.4387 34.1543 27.688C34.0183 28.3227 33.8937 28.7647 33.7803 29.014C33.667 29.2633 33.5423 29.388 33.4063 29.388C33.2477 29.388 33.0323 29.2293 32.7603 28.912ZM50.7641 28.436C50.3108 28.436 49.9368 28.3453 49.6421 28.164C49.3475 27.96 49.0981 27.6313 48.8941 27.178C48.6901 26.4527 48.5881 25.7273 48.5881 25.002C48.5881 24.662 48.6221 24.424 48.6901 24.288C48.7808 24.1973 48.8148 24.0047 48.7921 23.71C48.7921 23.3927 48.7921 23.166 48.7921 23.03C48.7695 22.5087 48.6108 22.248 48.3161 22.248C48.1121 22.248 47.8855 22.3273 47.6361 22.486C46.3668 23.2793 45.3015 23.9593 44.4401 24.526C43.5788 25.0927 42.7515 25.7273 41.9581 26.43C41.6408 26.7927 41.4028 27.11 41.2441 27.382C41.0855 27.654 40.9721 27.8467 40.9041 27.96C40.8361 28.0507 40.7455 28.096 40.6321 28.096C40.4961 28.1413 40.4055 28.164 40.3601 28.164C40.2468 28.164 40.1108 28.1073 39.9521 27.994C39.7935 27.858 39.6915 27.7673 39.6461 27.722C39.5555 27.6313 39.4081 27.484 39.2041 27.28C39.0001 27.0533 38.8868 26.8947 38.8641 26.804C38.8641 26.6227 38.9321 26.2033 39.0681 25.546C39.2268 24.8887 39.3515 24.4693 39.4421 24.288C39.5101 24.288 39.6121 24.152 39.7481 23.88C39.8841 23.5853 40.0088 23.3587 40.1221 23.2C40.1901 22.86 40.4848 22.078 41.0061 20.854C41.3235 20.31 41.5388 19.8567 41.6521 19.494C41.7881 19.1313 41.8788 18.678 41.9241 18.134V18.066C41.9241 17.9753 41.9581 17.9073 42.0261 17.862C42.0941 17.794 42.1621 17.76 42.2301 17.76C42.3888 17.6467 42.5361 17.59 42.6721 17.59C42.9668 17.59 43.2615 17.7713 43.5561 18.134C43.8961 18.5647 44.0661 19.018 44.0661 19.494C44.0661 20.0833 43.6921 21.0127 42.9441 22.282C42.8761 22.4407 42.7741 22.6673 42.6381 22.962C42.5248 23.2567 42.4681 23.4607 42.4681 23.574L44.3721 22.282C44.5535 22.078 45.0408 21.7153 45.8341 21.194C46.6275 20.6727 47.1828 20.378 47.5001 20.31C48.0441 20.0607 48.3841 19.936 48.5201 19.936C48.7921 19.936 49.1548 20.14 49.6081 20.548C50.0841 20.956 50.3675 21.296 50.4581 21.568C50.4581 21.8173 50.4808 21.9987 50.5261 22.112C50.6395 22.5653 50.6961 23.098 50.6961 23.71C50.6961 24.118 50.6621 24.492 50.5941 24.832C50.5488 25.1493 50.4808 25.3307 50.3901 25.376C50.3901 25.3987 50.4015 25.4327 50.4241 25.478C50.4468 25.5233 50.4921 25.546 50.5601 25.546V25.716C50.3788 25.716 50.3561 25.9087 50.4921 26.294C50.6281 26.6793 50.8095 26.974 51.0361 27.178C51.2628 27.4047 51.3761 27.6313 51.3761 27.858C51.3761 28.13 51.1721 28.3227 50.7641 28.436ZM54.2728 28.776C54.2048 28.64 54.0914 28.504 53.9328 28.368C53.7968 28.2093 53.7288 28.1073 53.7288 28.062C53.7288 27.8127 53.6721 27.62 53.5588 27.484C53.5134 27.4387 53.4908 27.3367 53.4908 27.178C53.4908 26.8153 53.6608 26.2033 54.0008 25.342C54.3634 24.458 54.8281 23.506 55.3948 22.486C55.5308 22.35 55.7008 22.112 55.9048 21.772C56.1314 21.432 56.2788 21.2393 56.3468 21.194C56.3468 21.1033 56.3808 21.024 56.4488 20.956C56.5168 20.8653 56.5961 20.82 56.6868 20.82V20.616C56.6868 20.412 57.0608 19.9247 57.8088 19.154C58.5568 18.3607 59.1688 17.8167 59.6448 17.522C60.2114 17.1367 60.7894 16.944 61.3788 16.944C61.7868 16.944 62.1381 17.0573 62.4328 17.284C62.5461 17.42 63.0674 17.9073 63.9968 18.746L65.2548 19.868L64.6428 21.568C64.4388 22.18 64.3368 22.7353 64.3368 23.234C64.3368 24.0953 64.5861 24.9227 65.0848 25.716C65.1981 25.9653 65.4248 26.2033 65.7648 26.43C66.1048 26.6567 66.4448 26.7927 66.7848 26.838C67.2834 26.9287 67.5328 27.178 67.5328 27.586C67.5328 28.0393 67.3288 28.3113 66.9208 28.402C66.8301 28.4247 66.6941 28.436 66.5128 28.436C65.1754 28.436 64.0194 27.4953 63.0448 25.614C62.9541 25.478 62.8294 25.2287 62.6708 24.866C62.5348 24.5033 62.4554 24.254 62.4328 24.118C62.2968 24.2993 62.1268 24.5147 61.9228 24.764C61.7188 25.0133 61.5261 25.2287 61.3448 25.41C58.8741 27.8807 56.9248 29.116 55.4968 29.116C55.0434 29.116 54.6354 29.0027 54.2728 28.776ZM55.4968 26.872C55.4968 26.9853 55.6101 27.0193 55.8368 26.974C56.0861 26.9287 56.3808 26.8153 56.7208 26.634C57.0834 26.4527 57.4461 26.2147 57.8088 25.92C59.7581 24.2427 61.1634 22.7807 62.0248 21.534L62.7728 20.31C62.5461 19.834 62.3081 19.494 62.0588 19.29C61.8094 19.0633 61.5828 18.95 61.3788 18.95C60.9028 18.95 60.1548 19.5507 59.1348 20.752C58.1148 21.9307 57.1854 23.3247 56.3468 24.934C56.1428 25.3193 55.9614 25.716 55.8028 26.124C55.6441 26.5093 55.5421 26.7587 55.4968 26.872ZM80.6809 31.938C79.9556 31.4847 79.4116 31.088 79.0489 30.748C78.7089 30.408 78.5389 30.0907 78.5389 29.796C78.5389 29.5013 78.7316 29.2407 79.1169 29.014C79.2303 28.946 79.4229 29.014 79.6949 29.218C79.9896 29.3993 80.2729 29.626 80.5449 29.898C81.1343 30.442 81.9049 30.714 82.8569 30.714C83.2649 30.714 83.8089 30.6347 84.4889 30.476C85.4183 30.204 86.2343 29.8073 86.9369 29.286C87.6623 28.7647 88.3536 28.096 89.0109 27.28C89.4189 26.736 89.7249 26.1353 89.9289 25.478C90.1329 24.8207 90.2349 24.1973 90.2349 23.608C90.2349 22.8827 90.0989 22.35 89.8269 22.01C88.9203 20.786 87.6283 20.174 85.9509 20.174C85.2256 20.174 84.5456 20.2647 83.9109 20.446L81.9389 20.854C81.8936 20.8767 81.7916 20.9107 81.6329 20.956C81.4743 20.9787 81.2249 21.466 80.8849 22.418C80.5449 23.37 80.1029 24.6167 79.5589 26.158C79.0829 27.5407 78.7089 28.5153 78.4369 29.082C78.1649 29.626 77.9156 29.898 77.6889 29.898C77.4623 29.898 77.1903 29.6487 76.8729 29.15C76.6236 28.742 76.4989 28.3907 76.4989 28.096C76.4989 27.8013 76.6009 27.484 76.8049 27.144C76.9183 26.94 77.0089 26.736 77.0769 26.532C77.1676 26.328 77.2583 26.0447 77.3489 25.682C77.6436 24.798 78.4936 22.5993 79.8989 19.086C81.3269 15.5727 82.4376 12.9207 83.2309 11.13C83.7976 9.838 83.9676 9.158 83.7409 9.09C83.7409 9.022 83.7069 8.92 83.6389 8.784C83.5709 8.648 83.5483 8.546 83.5709 8.478C83.5709 8.342 83.8883 8.138 84.5229 7.866C85.1576 7.594 85.6223 7.48067 85.9169 7.526H86.1209C86.4156 7.526 86.5629 7.46933 86.5629 7.356C86.6083 7.356 86.8123 7.33333 87.1749 7.288C87.5603 7.24267 87.9683 7.24267 88.3989 7.288C89.9176 7.424 91.0963 7.866 91.9349 8.614C92.7736 9.362 93.1816 10.3593 93.1589 11.606C93.1363 12.1727 92.7396 13.0113 91.9689 14.122C91.1983 15.21 90.4276 16.1053 89.6569 16.808C89.2943 17.1253 88.8749 17.4653 88.3989 17.828C87.9456 18.168 87.6509 18.3833 87.5149 18.474L88.3649 18.78C89.4756 19.188 90.3483 19.698 90.9829 20.31C91.6403 20.8993 92.0936 21.6927 92.3429 22.69C92.3883 22.9167 92.4109 23.1207 92.4109 23.302C92.4109 23.8007 92.3203 24.3673 92.1389 25.002C91.9803 25.6367 91.7989 26.192 91.5949 26.668C91.4589 26.804 91.3456 26.9513 91.2549 27.11C91.1643 27.2687 91.1076 27.3707 91.0849 27.416C91.0623 27.5067 90.8583 27.858 90.4729 28.47C90.0876 29.0593 89.7476 29.5353 89.4529 29.898C88.3196 30.8727 87.3109 31.5187 86.4269 31.836C85.4749 32.2667 84.3983 32.482 83.1969 32.482C82.0863 32.482 81.2476 32.3007 80.6809 31.938ZM82.3469 18.848C82.5963 18.8027 83.0949 18.712 83.8429 18.576C84.6136 18.4173 85.1463 18.2813 85.4409 18.168C85.4863 18.1453 85.6223 18.0773 85.8489 17.964C86.0983 17.828 86.3476 17.6353 86.5969 17.386C87.1409 16.8873 87.8096 16.1507 88.6029 15.176C89.3963 14.1787 89.9743 13.34 90.3369 12.66C90.9036 11.7307 91.1869 11.0507 91.1869 10.62C91.1869 10.3253 91.0623 10.0533 90.8129 9.804C90.5183 9.44133 89.8156 9.26 88.7049 9.26C87.9796 9.26 87.3563 9.328 86.8349 9.464C86.5176 9.55467 86.2796 9.668 86.1209 9.804C85.9849 9.91733 85.9169 10.0987 85.9169 10.348C85.9169 10.688 85.7356 11.0393 85.3729 11.402C85.3503 11.538 85.2936 11.674 85.2029 11.81C85.1349 11.9233 85.0896 11.9913 85.0669 12.014C85.0669 12.082 84.9309 12.422 84.6589 13.034C84.2963 13.7367 83.9563 14.53 83.6389 15.414C82.7776 17.454 82.3469 18.5987 82.3469 18.848ZM95.013 28.776C94.945 28.64 94.8317 28.504 94.673 28.368C94.537 28.2093 94.469 28.1073 94.469 28.062C94.469 27.8127 94.4123 27.62 94.299 27.484C94.2537 27.4387 94.231 27.3367 94.231 27.178C94.231 26.8153 94.401 26.2033 94.741 25.342C95.1037 24.458 95.5683 23.506 96.135 22.486C96.271 22.35 96.441 22.112 96.645 21.772C96.8717 21.432 97.019 21.2393 97.087 21.194C97.087 21.1033 97.121 21.024 97.189 20.956C97.257 20.8653 97.3363 20.82 97.427 20.82V20.616C97.427 20.412 97.801 19.9247 98.549 19.154C99.297 18.3607 99.909 17.8167 100.385 17.522C100.952 17.1367 101.53 16.944 102.119 16.944C102.527 16.944 102.878 17.0573 103.173 17.284C103.286 17.42 103.808 17.9073 104.737 18.746L105.995 19.868L105.383 21.568C105.179 22.18 105.077 22.7353 105.077 23.234C105.077 24.0953 105.326 24.9227 105.825 25.716C105.938 25.9653 106.165 26.2033 106.505 26.43C106.845 26.6567 107.185 26.7927 107.525 26.838C108.024 26.9287 108.273 27.178 108.273 27.586C108.273 28.0393 108.069 28.3113 107.661 28.402C107.57 28.4247 107.434 28.436 107.253 28.436C105.916 28.436 104.76 27.4953 103.785 25.614C103.694 25.478 103.57 25.2287 103.411 24.866C103.275 24.5033 103.196 24.254 103.173 24.118C103.037 24.2993 102.867 24.5147 102.663 24.764C102.459 25.0133 102.266 25.2287 102.085 25.41C99.6143 27.8807 97.665 29.116 96.237 29.116C95.7837 29.116 95.3757 29.0027 95.013 28.776ZM96.237 26.872C96.237 26.9853 96.3503 27.0193 96.577 26.974C96.8263 26.9287 97.121 26.8153 97.461 26.634C97.8237 26.4527 98.1863 26.2147 98.549 25.92C100.498 24.2427 101.904 22.7807 102.765 21.534L103.513 20.31C103.286 19.834 103.048 19.494 102.799 19.29C102.55 19.0633 102.323 18.95 102.119 18.95C101.643 18.95 100.895 19.5507 99.875 20.752C98.855 21.9307 97.9257 23.3247 97.087 24.934C96.883 25.3193 96.7017 25.716 96.543 26.124C96.3843 26.5093 96.2823 26.7587 96.237 26.872ZM112.303 29.762C111.94 29.694 111.566 29.456 111.181 29.048C110.818 28.6173 110.58 28.2207 110.467 27.858C110.467 27.8127 110.444 27.7673 110.399 27.722C110.353 27.654 110.319 27.6087 110.297 27.586C110.206 27.518 110.161 27.144 110.161 26.464C110.161 25.92 110.183 25.3533 110.229 24.764C110.297 24.1747 110.376 23.6987 110.467 23.336L111.079 21.534L111.555 20.174L112.473 18.202L111.113 17.828C110.954 17.8053 110.818 17.726 110.705 17.59C110.614 17.454 110.569 17.3293 110.569 17.216C110.569 17.0347 110.659 16.8193 110.841 16.57C111.045 16.298 111.203 16.162 111.317 16.162C111.385 16.1847 111.566 16.196 111.861 16.196C112.541 16.196 113.051 16.162 113.391 16.094C113.617 16.0033 113.776 15.822 113.867 15.55C113.957 15.3687 114.059 15.142 114.173 14.87C114.309 14.598 114.433 14.3487 114.547 14.122C114.615 13.986 114.717 13.782 114.853 13.51C115.011 13.2153 115.204 12.8867 115.431 12.524C115.476 12.456 115.578 12.2973 115.737 12.048C115.895 11.776 116.088 11.5493 116.315 11.368C116.473 11.2093 116.666 11.13 116.893 11.13C117.119 11.13 117.414 11.2773 117.777 11.572C117.822 11.64 117.879 11.7307 117.947 11.844C118.037 11.9573 118.083 12.0593 118.083 12.15C118.083 12.2407 117.992 12.4333 117.811 12.728C117.675 13 117.539 13.2493 117.403 13.476C117.289 13.68 117.187 13.8613 117.097 14.02C116.825 14.4733 116.632 14.8133 116.519 15.04C116.292 15.3347 116.179 15.5613 116.179 15.72C116.179 15.8787 116.326 15.958 116.621 15.958C116.938 15.958 117.471 15.89 118.219 15.754C118.536 15.7087 118.751 15.686 118.865 15.686C119.658 15.686 120.089 16.0147 120.157 16.672C120.179 16.808 120.191 16.9667 120.191 17.148C120.191 17.4653 120.077 17.658 119.851 17.726C119.647 17.794 119.171 17.828 118.423 17.828C117.697 17.9413 116.949 17.998 116.179 17.998C116.043 17.998 115.884 18.0093 115.703 18.032C115.544 18.032 115.374 18.0547 115.193 18.1C115.011 18.1453 114.875 18.2133 114.785 18.304C114.717 18.3947 114.637 18.542 114.547 18.746C114.479 18.814 114.32 19.0747 114.071 19.528C113.753 20.1853 113.549 20.582 113.459 20.718C112.847 22.5313 112.393 24.39 112.099 26.294C112.053 26.6567 112.031 26.8833 112.031 26.974C112.031 27.314 112.144 27.552 112.371 27.688C112.597 27.824 112.983 27.892 113.527 27.892C114.297 27.892 114.966 27.8127 115.533 27.654C116.213 27.3593 116.723 27.11 117.063 26.906C117.267 26.7927 117.448 26.6907 117.607 26.6C117.788 26.4867 117.913 26.4073 117.981 26.362C118.049 26.226 118.128 26.158 118.219 26.158C118.4 26.158 118.559 26.3393 118.695 26.702C118.695 27.0647 118.615 27.382 118.457 27.654C118.298 27.926 117.901 28.2433 117.267 28.606C115.952 29.4447 114.637 29.864 113.323 29.864C112.96 29.864 112.62 29.83 112.303 29.762ZM121.111 28.776C121.043 28.64 120.929 28.504 120.771 28.368C120.635 28.2093 120.567 28.1073 120.567 28.062C120.567 27.8127 120.51 27.62 120.397 27.484C120.351 27.4387 120.329 27.3367 120.329 27.178C120.329 26.8153 120.499 26.2033 120.839 25.342C121.201 24.458 121.666 23.506 122.233 22.486C122.369 22.35 122.539 22.112 122.743 21.772C122.969 21.432 123.117 21.2393 123.185 21.194C123.185 21.1033 123.219 21.024 123.287 20.956C123.355 20.8653 123.434 20.82 123.525 20.82V20.616C123.525 20.412 123.899 19.9247 124.647 19.154C125.395 18.3607 126.007 17.8167 126.483 17.522C127.049 17.1367 127.627 16.944 128.217 16.944C128.625 16.944 128.976 17.0573 129.271 17.284C129.384 17.42 129.905 17.9073 130.835 18.746L132.093 19.868L131.481 21.568C131.277 22.18 131.175 22.7353 131.175 23.234C131.175 24.0953 131.424 24.9227 131.923 25.716C132.036 25.9653 132.263 26.2033 132.603 26.43C132.943 26.6567 133.283 26.7927 133.623 26.838C134.121 26.9287 134.371 27.178 134.371 27.586C134.371 28.0393 134.167 28.3113 133.759 28.402C133.668 28.4247 133.532 28.436 133.351 28.436C132.013 28.436 130.857 27.4953 129.883 25.614C129.792 25.478 129.667 25.2287 129.509 24.866C129.373 24.5033 129.293 24.254 129.271 24.118C129.135 24.2993 128.965 24.5147 128.761 24.764C128.557 25.0133 128.364 25.2287 128.183 25.41C125.712 27.8807 123.763 29.116 122.335 29.116C121.881 29.116 121.473 29.0027 121.111 28.776ZM122.335 26.872C122.335 26.9853 122.448 27.0193 122.675 26.974C122.924 26.9287 123.219 26.8153 123.559 26.634C123.921 26.4527 124.284 26.2147 124.647 25.92C126.596 24.2427 128.001 22.7807 128.863 21.534L129.611 20.31C129.384 19.834 129.146 19.494 128.897 19.29C128.647 19.0633 128.421 18.95 128.217 18.95C127.741 18.95 126.993 19.5507 125.973 20.752C124.953 21.9307 124.023 23.3247 123.185 24.934C122.981 25.3193 122.799 25.716 122.641 26.124C122.482 26.5093 122.38 26.7587 122.335 26.872ZM138.4 29.762C138.038 29.694 137.664 29.456 137.278 29.048C136.916 28.6173 136.678 28.2207 136.564 27.858C136.564 27.8127 136.542 27.7673 136.496 27.722C136.451 27.654 136.417 27.6087 136.394 27.586C136.304 27.518 136.258 27.144 136.258 26.464C136.258 25.92 136.281 25.3533 136.326 24.764C136.394 24.1747 136.474 23.6987 136.564 23.336L137.176 21.534L137.652 20.174L138.57 18.202L137.21 17.828C137.052 17.8053 136.916 17.726 136.802 17.59C136.712 17.454 136.666 17.3293 136.666 17.216C136.666 17.0347 136.757 16.8193 136.938 16.57C137.142 16.298 137.301 16.162 137.414 16.162C137.482 16.1847 137.664 16.196 137.958 16.196C138.638 16.196 139.148 16.162 139.488 16.094C139.715 16.0033 139.874 15.822 139.964 15.55C140.055 15.3687 140.157 15.142 140.27 14.87C140.406 14.598 140.531 14.3487 140.644 14.122C140.712 13.986 140.814 13.782 140.95 13.51C141.109 13.2153 141.302 12.8867 141.528 12.524C141.574 12.456 141.676 12.2973 141.834 12.048C141.993 11.776 142.186 11.5493 142.412 11.368C142.571 11.2093 142.764 11.13 142.99 11.13C143.217 11.13 143.512 11.2773 143.874 11.572C143.92 11.64 143.976 11.7307 144.044 11.844C144.135 11.9573 144.18 12.0593 144.18 12.15C144.18 12.2407 144.09 12.4333 143.908 12.728C143.772 13 143.636 13.2493 143.5 13.476C143.387 13.68 143.285 13.8613 143.194 14.02C142.922 14.4733 142.73 14.8133 142.616 15.04C142.39 15.3347 142.276 15.5613 142.276 15.72C142.276 15.8787 142.424 15.958 142.718 15.958C143.036 15.958 143.568 15.89 144.316 15.754C144.634 15.7087 144.849 15.686 144.962 15.686C145.756 15.686 146.186 16.0147 146.254 16.672C146.277 16.808 146.288 16.9667 146.288 17.148C146.288 17.4653 146.175 17.658 145.948 17.726C145.744 17.794 145.268 17.828 144.52 17.828C143.795 17.9413 143.047 17.998 142.276 17.998C142.14 17.998 141.982 18.0093 141.8 18.032C141.642 18.032 141.472 18.0547 141.29 18.1C141.109 18.1453 140.973 18.2133 140.882 18.304C140.814 18.3947 140.735 18.542 140.644 18.746C140.576 18.814 140.418 19.0747 140.168 19.528C139.851 20.1853 139.647 20.582 139.556 20.718C138.944 22.5313 138.491 24.39 138.196 26.294C138.151 26.6567 138.128 26.8833 138.128 26.974C138.128 27.314 138.242 27.552 138.468 27.688C138.695 27.824 139.08 27.892 139.624 27.892C140.395 27.892 141.064 27.8127 141.63 27.654C142.31 27.3593 142.82 27.11 143.16 26.906C143.364 26.7927 143.546 26.6907 143.704 26.6C143.886 26.4867 144.01 26.4073 144.078 26.362C144.146 26.226 144.226 26.158 144.316 26.158C144.498 26.158 144.656 26.3393 144.792 26.702C144.792 27.0647 144.713 27.382 144.554 27.654C144.396 27.926 143.999 28.2433 143.364 28.606C142.05 29.4447 140.735 29.864 139.42 29.864C139.058 29.864 138.718 29.83 138.4 29.762Z" fill="black"/>
<path d="M151.073 27.673C149.388 25.0276 157.267 16.9392 159.978 17.2182C162.689 17.4973 169.429 28.0789 167.341 29.3473C165.254 30.6156 160.621 26.1836 159.072 26.0242C157.522 25.8647 152.758 30.3184 151.073 27.673Z" fill="black"/>
<ellipse cx="152.128" cy="17.0182" rx="2" ry="3" transform="rotate(-26.4695 152.128 17.0182)" fill="black"/>
<ellipse cx="157.52" cy="12.7034" rx="2" ry="3.20528" transform="rotate(-20.548 157.52 12.7034)" fill="black"/>
<ellipse cx="163.475" cy="13.3137" rx="2" ry="3.20528" transform="rotate(31.9132 163.475 13.3137)" fill="black"/>
<ellipse cx="167.045" cy="17.7021" rx="2" ry="3.20528" transform="rotate(31.9132 167.045 17.7021)" fill="black"/>
</svg>
