<svg width="107" height="129" viewBox="0 0 107 129" fill="none" xmlns="http://www.w3.org/2000/svg">
<path d="M37 36.8793C37 36.8793 35.3943 17.4996 23.4573 6.73357C11.5191 -4.0331 7.15696 0.273426 5.32124 4.81903C3.48552 9.36464 4.17304 16.5426 5.32124 25.3948C6.46881 34.2469 -0.18846 40.707 1.18849 48.3632C2.56608 56.0187 8.07577 57.6935 8.53518 62C8.53518 62 28.9658 39.2713 37 36.8793Z" fill="#545252"/>
<path d="M22.5589 43.4618C31.5976 35.3223 25.1755 15.2138 18.0391 9.70835C10.9041 4.20159 8.31686 13.7696 8.31686 13.7696C8.40042 17.2566 8.87766 21.2896 9.47698 25.7464C10.6665 34.6041 3.76777 41.0675 5.19556 48.7281C5.46258 50.1592 5.87847 51.382 6.38313 52.4523C16.1315 55.6975 22.5589 43.4618 22.5589 43.4618Z" fill="#706C6C"/>
<path d="M70 36.8793C70 36.8793 71.6057 17.4996 83.5435 6.73357C95.4812 -4.0331 99.8434 0.273426 101.679 4.81903C103.516 9.36464 102.828 16.5426 101.679 25.3948C100.532 34.2469 107.189 40.707 105.811 48.3632C104.434 56.0187 98.9246 57.6935 98.4652 62C98.4652 62 78.0343 39.2713 70 36.8793Z" fill="#545252"/>
<path d="M84.4402 43.4618C75.4031 35.3223 81.8243 15.2138 88.9604 9.70835C96.0958 4.20159 98.6836 13.7696 98.6836 13.7696C98.5987 17.2566 98.1208 21.2896 97.5222 25.7464C96.3334 34.6041 103.231 41.0675 101.805 48.7281C101.537 50.1592 101.121 51.382 100.617 52.4523C90.8679 55.6975 84.4402 43.4618 84.4402 43.4618Z" fill="#706C6C"/>
<path d="M102.72 59.3547C92.7815 34.6591 53.5404 35.0002 53.5404 35.0002C53.5404 35.0002 12.2384 34.6591 4.35905 59.3547C-5.28192 89.5705 7.66409 111.909 20.0625 118.319C32.4615 124.728 38.2472 129 53.5404 129C68.8316 129 74.618 124.728 87.017 118.319C99.4154 111.909 114.544 88.7309 102.72 59.3547Z" fill="white"/>
<path d="M89.4473 118C89.4595 117.848 90.5293 104.317 80.9834 97.6217C71.3817 90.889 62.1398 84.7316 63.064 74.4433C63.9882 64.1556 68.0992 42.4126 75.5178 37.0014L75.528 37C86.989 39.9917 99.639 46.1733 103.644 58.9447C112.889 88.4221 101.344 110.514 89.4473 118Z" fill="#545252"/>
<path d="M17.5524 118C17.5402 117.848 16.4705 104.317 26.0163 97.6217C35.6172 90.889 44.8597 84.7316 43.9361 74.4433C43.0119 64.1556 38.8996 42.4126 31.4825 37.0014L31.4716 37C20.0107 39.9917 7.36143 46.1733 3.35559 58.9447C-5.88942 88.4221 5.65673 110.514 17.5524 118Z" fill="#545252"/>
<path d="M86 78.5C86 83.1952 82.6422 87 78.5 87C74.3565 87 71 83.1952 71 78.5C71 73.8048 74.3565 70 78.5 70C82.6422 70 86 73.8048 86 78.5Z" fill="black"/>
<path d="M78 74.4992C78 75.8811 77.1038 77 75.9997 77C74.8944 77 74 75.8811 74 74.4992C74 73.1189 74.8944 72 75.9997 72C77.1038 72 78 73.1189 78 74.4992Z" fill="#F1EDEC"/>
<path d="M35 78.5C35 83.1952 31.419 87 27.0007 87C22.5816 87 19 83.1952 19 78.5C19 73.8048 22.5816 70 27.0007 70C31.419 70 35 73.8048 35 78.5Z" fill="black"/>
<path d="M27 74.4992C27 75.8811 26.1039 77 24.9994 77C23.8961 77 23 75.8811 23 74.4992C23 73.1189 23.8961 72 24.9994 72C26.1039 72 27 73.1189 27 74.4992Z" fill="#F1EDEC"/>
<path d="M52.9987 90.0022C52.9987 90.0022 43.7901 89.734 42 95.0905C42 95.0905 42.5111 105 52.9987 105C63.4876 105 64 95.0905 64 95.0905C62.208 89.734 52.9987 90.0022 52.9987 90.0022Z" fill="black"/>
<path d="M72.3082 104.099C72.2501 104.51 70.8058 114.154 63.0966 114.154C56.0518 114.154 54.1862 106.033 53.8694 104.31C53.8721 104.299 53.874 104.285 53.874 104.283L53.8655 104.281C53.8381 104.134 53.823 104.035 53.8185 104L52.9993 104.137L52.1822 104C52.177 104.035 52.1613 104.134 52.1358 104.281L52.1267 104.283C52.1267 104.285 52.1286 104.299 52.1299 104.31C51.8144 106.033 49.9482 114.154 42.904 114.154C35.1949 114.154 33.7506 104.51 33.6931 104.099L32 104.372C32.0157 104.489 33.7134 116 42.904 116C48.9227 116 51.7569 111.02 52.9993 107.552C54.2437 111.02 57.0773 116 63.0966 116C72.2873 116 73.9837 104.489 74 104.372L72.3082 104.099Z" fill="black"/>
</svg>
