<svg width="46" height="48" viewBox="0 0 46 48" fill="none" xmlns="http://www.w3.org/2000/svg">
<path fill-rule="evenodd" clip-rule="evenodd" d="M23.768 18.5247C17.3894 17.8566 -1.09076 36.6896 2.88806 42.8754C5.48982 46.9203 11.1699 43.8872 15.809 41.41C18.2644 40.0989 20.4283 38.9435 21.6898 39.0756C23.0057 39.2134 25.2701 40.6537 27.8573 42.2993C32.4365 45.2118 38.0268 48.7675 41.1593 46.8839C46.0618 43.9359 30.1465 19.1927 23.768 18.5247ZM23.0709 22.4936C18.287 21.9925 4.64954 33.9154 7.69551 37.9431C9.68727 40.5768 13.9084 38.6867 17.356 37.1429C19.1808 36.3259 20.7888 35.6058 21.7349 35.7049C22.7219 35.8083 24.4331 36.7609 26.3883 37.8494C29.8487 39.7759 34.0733 42.1278 36.399 40.9495C40.0387 39.1055 27.8548 22.9947 23.0709 22.4936Z" fill="#FA8BA4"/>
<path fill-rule="evenodd" clip-rule="evenodd" d="M8.41366 24.4083C10.7199 23.2396 11.1932 19.4381 9.47067 15.9175C7.74818 12.3968 4.48224 10.4901 2.17598 11.6588C-0.130271 12.8275 -0.603508 16.6289 1.11898 20.1496C2.84147 23.6703 6.10741 25.5769 8.41366 24.4083ZM7.50569 22.4622C8.88334 21.7641 9.10222 19.3629 7.99459 17.099C6.88695 14.835 4.87223 13.5656 3.49459 14.2638C2.11694 14.9619 1.89806 17.3631 3.00569 19.627C4.11333 21.891 6.12805 23.1603 7.50569 22.4622Z" fill="#FA8BA4"/>
<path fill-rule="evenodd" clip-rule="evenodd" d="M20.4968 14.915C22.9092 13.9947 23.6901 10.0589 22.2408 6.12421C20.7916 2.18948 17.6612 -0.254209 15.2487 0.666083C12.8363 1.58638 12.0555 5.52215 13.5047 9.45688C14.9539 13.3916 18.0844 15.8353 20.4968 14.915ZM19.7409 12.7701C21.3029 12.1742 21.7701 9.52165 20.7844 6.84544C19.7987 4.16922 17.7334 2.48278 16.1714 3.07867C14.6093 3.67455 14.1421 6.32712 15.1278 9.00333C16.1135 11.6795 18.1789 13.366 19.7409 12.7701Z" fill="#FA8BA4"/>
<path fill-rule="evenodd" clip-rule="evenodd" d="M27.8109 15.6984C29.9978 17.0845 33.5401 15.3165 35.7228 11.7496C37.9054 8.18268 37.902 4.16748 35.7151 2.78142C33.5282 1.39536 29.9859 3.16331 27.8032 6.73024C25.6205 10.2972 25.624 14.3124 27.8109 15.6984ZM29.2805 13.5044C30.5129 14.2855 32.6649 13.0345 34.0872 10.7102C35.5095 8.38586 35.6635 5.86845 34.4311 5.08737C33.1987 4.30629 31.0467 5.55732 29.6244 7.88163C28.2021 10.2059 28.0481 12.7233 29.2805 13.5044Z" fill="#FA8BA4"/>
<path fill-rule="evenodd" clip-rule="evenodd" d="M36.1361 26.1144C38.323 27.5005 41.8653 25.7326 44.048 22.1656C46.2306 18.5987 46.2272 14.5835 44.0403 13.1974C41.8534 11.8114 38.3111 13.5793 36.1284 17.1463C33.9457 20.7132 33.9492 24.7284 36.1361 26.1144ZM37.4385 24.0059C38.7852 24.8594 41.1373 23.4915 42.6922 20.9506C44.247 18.4097 44.4158 15.6579 43.0692 14.8044C41.7225 13.9509 39.3704 15.3189 37.8155 17.8598C36.2607 20.4007 36.0919 23.1524 37.4385 24.0059Z" fill="#FA8BA4"/>
</svg>
